<svg xmlns="http://www.w3.org/2000/svg">

<g id="search">
<path fill-rule="evenodd" clip-rule="evenodd" d="M11.0197 1.00001C16.5402 1.00808 21.0112 6.03079 21.0112 11C21.0112 12.6397 20.2671 14.6765 19.5012 16L23.0012 19.5L19.5012 23L16.0012 20C14.7671 20.6374 12.5045 20.998 11.0197 21C6.18386 21.0065 1.28062 16.8822 1.01117 11.5C0.727918 5.8422 5.35481 0.991721 11.0197 1.00001ZM11.0197 17C14.4742 17 17.3816 14.4518 17.5197 11C17.6632 7.41303 14.6096 4.50001 11.0197 4.50001C7.42985 4.50001 4.37622 7.41303 4.5197 11C4.65777 14.4518 7.56516 17 11.0197 17Z"/>
</g>

<g id="download">
<path d="M4 7H1V1H18V7H15V4H4V7Z" />
<path d="M4 16H1V22H18V16H15V19H4V16Z" />
<path d="M9.5 16L6 12H8V7H11V12H13L9.5 16Z" />
<path d="M4 7H1V1H18V7H15V4H4V7Z" />
<path d="M4 16H1V22H18V16H15V19H4V16Z" />
<path d="M9.5 16L6 12H8V7H11V12H13L9.5 16Z" />
</g>

<g id="lang">
<path d="M7.45019 2.67697C4.72039 4.13196 2.72672 6.80806 2.12587 10H6L6.5 6.5L7.45019 2.67697Z"/>
<path d="M9.47519 10C9.47519 10 10.5 2 12.4502 2C14.4004 2 15.4252 10 15.4252 10H12.4502H9.47519Z"/>
<path d="M18.8254 10L16.9958 2.67697C19.7288 4.12807 21.6872 6.7966 22.2776 10H18.8254Z"/>
<path d="M12.4502 22C10.5 22 9.47519 13 9.47519 13H15.4252C15.4252 13 14.4004 22 12.4502 22Z"/>
<path d="M16.9958 21.276C17.8079 18.0407 18.8254 13 18.8254 13H22.4161C22.0846 16.5438 19.995 19.6427 16.9958 21.276Z"/>
<path d="M7.45019 21.276L6 13L2 13.1225C2.38058 16.5982 4.49312 19.6558 7.45019 21.276Z"/>
<path d="M7.45019 2.67697C4.72039 4.13196 2.72672 6.80806 2.12587 10H6L6.5 6.5L7.45019 2.67697Z"/>
<path d="M9.47519 10C9.47519 10 10.5 2 12.4502 2C14.4004 2 15.4252 10 15.4252 10H12.4502H9.47519Z"/>
<path d="M18.8254 10L16.9958 2.67697C19.7288 4.12807 21.6872 6.7966 22.2776 10H18.8254Z"/>
<path d="M12.4502 22C10.5 22 9.47519 13 9.47519 13H15.4252C15.4252 13 14.4004 22 12.4502 22Z"/>
<path d="M16.9958 21.276C17.8079 18.0407 18.8254 13 18.8254 13H22.4161C22.0846 16.5438 19.995 19.6427 16.9958 21.276Z"/>
<path d="M7.45019 21.276L6 13L2 13.1225C2.38058 16.5982 4.49312 19.6558 7.45019 21.276Z"/>
</g>

<g id="night">
<path d="M12.5034 21.284C6.55195 21.284 2.14764 17.7674 2.00345 11.8176C1.88165 6.79241 5.00066 2.86828 9.50344 2C9.50344 2 9.2438 9.48374 12.5034 11.8176C15.35 13.8557 21.4507 12.3751 21.4507 12.3751C20.9642 17.0094 17.1692 21.284 12.5034 21.284Z" />
</g>

<g id="day">
<path d="M7 12.5C7 14.9853 9.01472 17 11.5 17C13.9853 17 16 14.9853 16 12.5C16 10.0147 13.9853 8 11.5 8C9.01472 8 7 10.0147 7 12.5Z" />
<path d="M4 14V11H1V14H4Z" />
<path d="M6.5 6L5 7.5L3 6L5 4L6.5 6Z" />
<path d="M13 4.5H10V2H13V4.5Z" />
<path d="M18 4L16.5 6L18 7.5L20 6L18 4Z" />
<path d="M22 11H19V14H22V11Z" />
<path d="M20 19L18 17.5L16.5 19L18 21L20 19Z" />
<path d="M10 20.5H13V23H10V20.5Z" />
<path d="M5 21L6.5 19L5 17.5L3 18.5L5 21Z" />
<path d="M7 12.5C7 14.9853 9.01472 17 11.5 17C13.9853 17 16 14.9853 16 12.5C16 10.0147 13.9853 8 11.5 8C9.01472 8 7 10.0147 7 12.5Z" />
<path d="M4 14V11H1V14H4Z" />
<path d="M6.5 6L5 7.5L3 6L5 4L6.5 6Z" />
<path d="M13 4.5H10V2H13V4.5Z" />
<path d="M18 4L16.5 6L18 7.5L20 6L18 4Z" />
<path d="M22 11H19V14H22V11Z" />
<path d="M20 19L18 17.5L16.5 19L18 21L20 19Z" />
<path d="M10 20.5H13V23H10V20.5Z" />
<path d="M5 21L6.5 19L5 17.5L3 18.5L5 21Z" />
</g>

<g id="spot">
<path d="M12.6222 2C15.5923 2 18 4.36208 18 7.27586C18 9.04808 17.1093 10.6162 15.7431 11.5729C15.3025 11.8815 14.8123 12.1265 14.2866 12.2942C14.2866 12.2942 13.7865 9.16391 12.158 7.86207C10.5297 6.56047 9.31911 6.26965 7.27732 6.68965C7.57455 4.05175 9.85417 2 12.6222 2Z" />
<path fill-rule="evenodd" clip-rule="evenodd" d="M7.37775 8.44828C4.4077 8.44828 2 10.8104 2 13.7241C2 16.6379 4.4077 19 7.37775 19C10.3478 19 12.7555 16.6379 12.7555 13.7241C12.7555 10.8104 10.3478 8.44828 7.37775 8.44828ZM10.17 13.7241L7.37775 10.97L4.59 13.7241L7.37775 16.48L10.17 13.7241Z" />
<path d="M15.7431 11.5729C17.1093 10.6162 18 9.04808 18 7.27586C18 4.36208 15.5923 2 12.6222 2C9.85417 2 7.57455 4.05175 7.27732 6.68965C9.31911 6.26965 10.5297 6.56047 12.158 7.86207C13.7865 9.16391 14.2866 12.2942 14.2866 12.2942M15.7431 11.5729C15.3025 11.8815 14.8123 12.1265 14.2866 12.2942M15.7431 11.5729L14.2866 12.2942M7.37775 10.97L10.17 13.7241L7.37775 16.48L4.59 13.7241L7.37775 10.97ZM7.37775 8.44828C4.4077 8.44828 2 10.8104 2 13.7241C2 16.6379 4.4077 19 7.37775 19C10.3478 19 12.7555 16.6379 12.7555 13.7241C12.7555 10.8104 10.3478 8.44828 7.37775 8.44828Z" />
<path d="M1 1H8L4.5 4.5L1 8V1Z" fill="#FEC400"/>
<path d="M19 20H12L15.5 16.5L19 13V20Z" fill="#FEC400"/>
</g>

<g id="margin">
<path fill-rule="evenodd" clip-rule="evenodd" d="M13.5334 17.5C15.7425 17.5 17.5334 15.7091 17.5334 13.5C17.5334 11.2909 15.7425 9.5 13.5334 9.5C11.3242 9.5 9.53338 11.2909 9.53338 13.5C9.53338 15.7091 11.3242 17.5 13.5334 17.5ZM13.5334 12.0858L12.1192 13.5L13.5334 14.9142L14.9476 13.5L13.5334 12.0858Z" fill="#FEC400"/>
<path d="M10 1H17.0334V8L14.5 5.5L3.5 16.5C3.5 16.5 2.30952 16.2761 2.03338 16C1.75724 15.7239 1.5 14.5 1.5 14.5L12.5 3.5L10 1Z" />
<path fill-rule="evenodd" clip-rule="evenodd" d="M4.53338 8C2.45771 8 0.736869 6.05438 1.03338 4C1.29054 2.21823 2.73315 1 4.53338 1C6.33361 1 7.77622 2.21823 8.03338 4C8.32989 6.05438 6.60904 8 4.53338 8ZM4.53338 2.5L2.5 4.5L4.53338 6.5L6.5 4.5L4.53338 2.5Z" />
<path d="M10 1H17.0334V8L14.5 5.5L3.5 16.5C3.5 16.5 2.30952 16.2761 2.03338 16C1.75724 15.7239 1.5 14.5 1.5 14.5L12.5 3.5L10 1Z" />
<path fill-rule="evenodd" clip-rule="evenodd" d="M4.53338 8C2.45771 8 0.736869 6.05438 1.03338 4C1.29054 2.21823 2.73315 1 4.53338 1C6.33361 1 7.77622 2.21823 8.03338 4C8.32989 6.05438 6.60904 8 4.53338 8ZM4.53338 2.5L2.5 4.5L4.53338 6.5L6.5 4.5L4.53338 2.5Z" />
</g>

<g id="p2p">
<path d="M2.5 5C2.63807 6.24264 3.75736 7.13807 5 7C6.24264 6.86193 7.13807 5.74264 7 4.5C6.86193 3.25736 5.74264 2.36193 4.5 2.5C3.25736 2.63807 2.36193 3.75736 2.5 5Z" />
<path d="M8.5 11.5H1.5C1.5 11.5 1.59087 9.87256 2.5 9C3.07387 8.44922 4.30338 8.5 5 8.5C5.71612 8.5 6.91634 8.42824 7.5 9C8.38357 9.86556 8.5 11.5 8.5 11.5Z" />
<path d="M2.5 5C2.63807 6.24264 3.75736 7.13807 5 7C6.24264 6.86193 7.13807 5.74264 7 4.5C6.86193 3.25736 5.74264 2.36193 4.5 2.5C3.25736 2.63807 2.36193 3.75736 2.5 5Z" />
<path d="M8.5 11.5H1.5C1.5 11.5 1.59087 9.87256 2.5 9C3.07387 8.44922 4.30338 8.5 5 8.5C5.71612 8.5 6.91634 8.42824 7.5 9C8.38357 9.86556 8.5 11.5 8.5 11.5Z" />
<path d="M12 11.514C12.1381 12.7567 13.2574 13.6521 14.5 13.514C15.7426 13.376 16.6381 12.2567 16.5 11.014C16.3619 9.77141 15.2426 8.87597 14 9.01405C12.7574 9.15212 11.8619 10.2714 12 11.514Z" />
<path d="M18 18.014H11C11 18.014 11.0909 16.3866 12 15.514C12.5739 14.9633 13.8034 15.014 14.5 15.014C15.2161 15.014 16.4163 14.9423 17 15.514C17.8836 16.3796 18 18.014 18 18.014Z" />
<path d="M12 11.514C12.1381 12.7567 13.2574 13.6521 14.5 13.514C15.7426 13.376 16.6381 12.2567 16.5 11.014C16.3619 9.77141 15.2426 8.87597 14 9.01405C12.7574 9.15212 11.8619 10.2714 12 11.514Z" />
<path d="M18 18.014H11C11 18.014 11.0909 16.3866 12 15.514C12.5739 14.9633 13.8034 15.014 14.5 15.014C15.2161 15.014 16.4163 14.9423 17 15.514C17.8836 16.3796 18 18.014 18 18.014Z" />
<path d="M12 2H19V7H16V5H12V2Z" fill="#FEC400"/>
<path d="M7 19H0L0 14H3V16H7V19Z" fill="#FEC400"/>
</g>

<g id="conversion">
<path d="M0 20L0 13L3.5 16.5L7 20H0Z" fill="#FEC400"/>
<path d="M19 1V8L15.5 4.5L12 1L19 1Z" fill="#FEC400"/>
<path fill-rule="evenodd" clip-rule="evenodd" d="M9.5 4.5C6.18629 4.5 3.5 7.18629 3.5 10.5C3.5 13.8137 6.18629 16.5 9.5 16.5C12.8137 16.5 15.5 13.8137 15.5 10.5C15.5 7.18629 12.8137 4.5 9.5 4.5ZM6.5 10.5L9.5 7.5L12.5 10.5L9.5 13.5L6.5 10.5Z" />
</g>

<g id="bots">
<path d="M7.5 0H14.5V2H12.5V4H9.5V2H7.5V0Z" fill="#FEC400"/>
<path fill-rule="evenodd" clip-rule="evenodd" d="M20 3.5V7.5H22V12.5H20V17.5H2V14.5V12.5H0V7.5H2V3.5H20ZM9 6.5H6V9.5H9V6.5ZM14 6.5H17V9.5H14V6.5ZM14.75 12H7.75V13C7.75 13 10.3676 14.5 11.5 14.5C12.6324 14.5 14.75 13 14.75 13V12Z" />
</g>

<g id="trading">
<path d="M12.5 3.51405C12.6381 4.75669 13.7574 5.65212 15 5.51405C16.2426 5.37597 17.1381 4.25669 17 3.01405C16.8619 1.77141 15.7426 0.875975 14.5 1.01405C13.2574 1.15212 12.3619 2.27141 12.5 3.51405Z" />
<path d="M19 11.5H11C11 11.5 11.5909 8.3866 12.5 7.51405C13.0739 6.96327 14.3034 7.01405 15 7.01405C15.7161 7.01405 16.9163 6.94229 17.5 7.51405C18.3836 8.37961 19 11.5 19 11.5Z" />
<path d="M12.5 3.51405C12.6381 4.75669 13.7574 5.65212 15 5.51405C16.2426 5.37597 17.1381 4.25669 17 3.01405C16.8619 1.77141 15.7426 0.875975 14.5 1.01405C13.2574 1.15212 12.3619 2.27141 12.5 3.51405Z" />
<path d="M19 11.5H11C11 11.5 11.5909 8.3866 12.5 7.51405C13.0739 6.96327 14.3034 7.01405 15 7.01405C15.7161 7.01405 16.9163 6.94229 17.5 7.51405C18.3836 8.37961 19 11.5 19 11.5Z" />
<path fill-rule="evenodd" clip-rule="evenodd" d="M5.5 19C7.70914 19 9.5 17.2091 9.5 15C9.5 12.7909 7.70914 11 5.5 11C3.29086 11 1.5 12.7909 1.5 15C1.5 17.2091 3.29086 19 5.5 19ZM5.5 13.5858L4.08578 15L5.5 16.4142L6.91421 15L5.5 13.5858Z" fill="#FEC400"/>
<path d="M10 4V1H1V7.5H3V4H10Z" />
<path d="M19 14H16.5V17H13V19.5H19V14Z" />
<path d="M10 4V1H1V7.5H3V4H10Z" />
<path d="M19 14H16.5V17H13V19.5H19V14Z" />
</g>

<g id='api'>
<rect x="15.5" y="3" width="3" height="15" fill="#FEC400"/>
<path d="M13 9.5V6.5H10V3.5C10 3.5 8.14323 3.24384 7.00001 3.5C4.43658 4.07438 2.00001 7 2.00001 9V11.5C2.00001 13 4.3093 16.8791 7.00001 17.5C8.14158 17.7634 10 17.5 10 17.5V14.5H13V11.5H10V9.5H13Z" />
</g>

<g id="USD-M">
<path d="M0 7H4V17C4 17 2.87324 18 2 18C1.12676 18 0 17 0 17V7Z" fill="#FEC400"/>
<path fill-rule="evenodd" clip-rule="evenodd" d="M20 15.8087V1H6V18H5V19H16H17L18 18L19 17C19 17 19.5 16.5 20 15.8087ZM12.6392 14.1141V15.0909H13.3381V14.1148C13.9017 14.0853 14.3931 13.9817 14.8125 13.804C15.3182 13.5881 15.7045 13.2855 15.9716 12.8963C16.2415 12.5043 16.3778 12.0412 16.3807 11.5071C16.3778 11.1435 16.3111 10.821 16.1804 10.5398C16.0526 10.2585 15.8722 10.0142 15.6392 9.80682C15.4062 9.59943 15.1307 9.42472 14.8125 9.28267C14.4943 9.14062 14.1449 9.02699 13.7642 8.94176L13.3381 8.83986V6.71656C13.6262 6.75391 13.8648 6.84224 14.054 6.98153C14.3125 7.17188 14.4588 7.43892 14.4929 7.78267H16.2614C16.2528 7.26278 16.1136 6.8054 15.8438 6.41051C15.5739 6.01562 15.196 5.70739 14.7102 5.4858C14.3095 5.30195 13.8522 5.19437 13.3381 5.16306V4.18182H12.6392V5.1668C12.1525 5.20236 11.7093 5.30869 11.3097 5.4858C10.8097 5.70739 10.4162 6.01562 10.1293 6.41051C9.84517 6.8054 9.70455 7.26705 9.70739 7.79545C9.70455 8.44034 9.91619 8.95312 10.3423 9.33381C10.7685 9.71449 11.3494 9.99432 12.0852 10.1733L12.6392 10.3124V12.5578C12.4512 12.5355 12.2765 12.4935 12.1151 12.4318C11.8651 12.3324 11.6648 12.1861 11.5142 11.9929C11.3665 11.7969 11.2827 11.5526 11.2628 11.2599H9.47727C9.49148 11.8878 9.64347 12.4148 9.93324 12.8409C10.2259 13.2642 10.6321 13.5838 11.152 13.7997C11.5853 13.9787 12.081 14.0835 12.6392 14.1141ZM13.3381 12.5534C13.5014 12.5313 13.6505 12.4937 13.7855 12.4403C14.0185 12.3494 14.1989 12.223 14.3267 12.0611C14.4545 11.8991 14.5185 11.7131 14.5185 11.5028C14.5185 11.3068 14.4602 11.142 14.3438 11.0085C14.2301 10.875 14.0625 10.7614 13.8409 10.6676C13.6953 10.6052 13.5277 10.5466 13.3381 10.4918V12.5534ZM12.6392 8.66518C12.5722 8.64497 12.5069 8.62352 12.4432 8.60085C12.2756 8.53835 12.1278 8.46591 12 8.38352C11.8722 8.2983 11.7713 8.19744 11.6974 8.08097C11.6264 7.96449 11.5938 7.82812 11.5994 7.67188C11.5994 7.48438 11.6534 7.31676 11.7614 7.16903C11.8722 7.02131 12.0312 6.90625 12.2386 6.82386C12.3569 6.77526 12.4904 6.74051 12.6392 6.71962V8.66518Z"/>
</g>

<g id="coin-m">
<path d="M0 7H4V17C4 17 2.87324 18 2 18C1.12676 18 0 17 0 17V7Z" fill="#FEC400"/>
<path fill-rule="evenodd" clip-rule="evenodd" d="M20 15.8087V1H6V18H5V19H16H17L18 18L19 17C19 17 19.5 16.5 20 15.8087ZM13 10C11.3431 10 10 8.65685 10 7C10 5.34315 11.3431 4 13 4C14.6569 4 16 5.34315 16 7C16 8.65685 14.6569 10 13 10ZM11.5 7L13 8.5L14.5 7L13 5.5L11.5 7ZM16 15V13H10V15H16Z"/>
</g>

<g id="options">
<path d="M0 7H4V17C4 17 2.87324 18 2 18C1.12676 18 0 17 0 17V7Z" fill="#FEC400"/>
<path fill-rule="evenodd" clip-rule="evenodd" d="M20 15.8087V1H6V18H5V19H16H17L18 18L19 17C19 17 19.5 16.5 20 15.8087ZM10.6953 6V14H16.1016V12.6055H12.3867V10.6953H15.8086V9.30078H12.3867V7.39453H16.0859V6H10.6953Z"/>
</g>

<g id="square">
<path d="M7 0H21V12H16.5V4H7V0Z" fill="#FEC400"/>
<path fill-rule="evenodd" clip-rule="evenodd" d="M1 5.5H15V15.5H7L6 16.5L5 17.5L4 18.5V15.5H1V5.5ZM6.95797 6.44328C8.28129 6.48034 9.40041 6.90639 10.2785 7.70706C10.3771 7.79752 10.579 8.01361 10.6933 8.15236C11.4527 9.06881 11.8311 10.3053 11.7811 11.7128C11.7673 12.1047 11.6959 12.7121 11.6415 12.8901C11.5885 13.0654 11.4612 13.2765 11.3277 13.41C11.2564 13.4814 11.1201 13.5835 11.0271 13.6353C10.7993 13.7622 10.5399 13.7984 10.3477 13.7305C10.2745 13.7042 10.2505 13.6883 10.1737 13.6116C10.0949 13.5327 10.0816 13.5133 10.0566 13.4373C10.0156 13.3148 10.0128 13.2224 10.0471 13.0019C10.1571 12.2679 10.15 11.6452 10.0209 11.0493C9.73777 9.73472 8.88631 8.76097 7.6498 8.33575C6.93074 8.08961 6.13888 8.03567 5.25378 8.1759C5.15131 8.19166 5.03765 8.20439 5.00083 8.20425C4.7166 8.20133 4.51955 8.04301 4.47122 7.77861C4.42119 7.50027 4.55428 7.16248 4.8152 6.90156C4.98949 6.72728 5.19083 6.61265 5.40067 6.5677C5.80999 6.47964 6.44976 6.42837 6.95797 6.44328ZM8.02002 9.5972C7.20096 8.96682 6.17422 8.70797 5.01924 8.83647C4.68313 8.87334 4.47156 8.96454 4.24845 9.16926C3.90954 9.47975 3.76752 9.94108 3.90294 10.2871C3.95117 10.4078 4.11667 10.5733 4.2373 10.6215C4.3643 10.6717 4.49401 10.6807 4.72768 10.6577C5.45768 10.5847 6.07554 10.7309 6.5884 11.0923C6.73379 11.1961 6.98315 11.4432 7.08852 11.5903C7.41192 12.0409 7.5717 12.6 7.55219 13.208C7.54969 13.2757 7.53945 13.4146 7.52896 13.5204C7.50061 13.8146 7.55014 13.9958 7.70562 14.1512C7.85942 14.305 8.05501 14.3602 8.31595 14.325C8.57605 14.2889 8.77895 14.1846 8.98299 13.9806C9.22542 13.7381 9.32561 13.5092 9.36174 13.1153C9.46214 12.0069 9.24488 11.1007 8.68701 10.2927C8.59501 10.159 8.15434 9.6986 8.02002 9.5972ZM5.09841 11.1383C5.47046 11.1255 5.78349 11.2204 6.06702 11.4321C6.57121 11.8105 6.78417 12.4905 6.58404 13.0935C6.56608 13.1474 6.51604 13.259 6.47114 13.3398C6.40443 13.4655 6.36722 13.513 6.2261 13.6541C6.03879 13.844 5.92205 13.9222 5.70138 14.0044C5.28828 14.1583 4.80462 14.1211 4.44668 13.9094C4.12851 13.7221 4.099 13.6952 3.95917 13.4758C3.71156 13.0922 3.6333 12.6855 3.72567 12.2827C3.87577 11.6399 4.45053 11.1601 5.09841 11.1383Z"/>
<path d="M15 5.5H15.5V5H15V5.5ZM1 5.5V5H0.5V5.5H1ZM15 15.5V16H15.5V15.5H15ZM7 15.5V15H6.79289L6.64645 15.1465L7 15.5ZM4 18.5H3.5V19.7071L4.35355 18.8536L4 18.5ZM4 15.5H4.5V15H4V15.5ZM1 15.5H0.5V16H1V15.5ZM10.2785 7.70706L10.6165 7.3386L10.6154 7.33759L10.2785 7.70706ZM6.95797 6.44328L6.94331 6.94307L6.94397 6.94308L6.95797 6.44328ZM10.6933 8.15236L10.3073 8.47025L10.3083 8.4714L10.6933 8.15236ZM11.7811 11.7128L11.2814 11.6951L11.2814 11.6953L11.7811 11.7128ZM11.6415 12.8901L11.1633 12.7441L11.163 12.7453L11.6415 12.8901ZM11.3277 13.41L10.9742 13.0565L10.9742 13.0565L11.3277 13.41ZM11.0271 13.6353L10.7839 13.1984L10.7838 13.1985L11.0271 13.6353ZM10.3477 13.7305L10.1785 14.201L10.1812 14.2019L10.3477 13.7305ZM10.1737 13.6116L9.82019 13.9651L9.82019 13.9651L10.1737 13.6116ZM10.0566 13.4373L10.5315 13.2811L10.5308 13.2788L10.0566 13.4373ZM10.0471 13.0019L10.5412 13.0787L10.5416 13.0759L10.0471 13.0019ZM10.0209 11.0493L9.53214 11.1546L9.53226 11.1552L10.0209 11.0493ZM7.6498 8.33575L7.81239 7.86292L7.81173 7.86269L7.6498 8.33575ZM5.25378 8.1759L5.32978 8.67009L5.33202 8.66974L5.25378 8.1759ZM5.00083 8.20425L4.99569 8.70424L4.99902 8.70425L5.00083 8.20425ZM4.47122 7.77861L3.97911 7.86707L3.97937 7.86851L4.47122 7.77861ZM4.8152 6.90156L4.46165 6.54801L4.46165 6.54801L4.8152 6.90156ZM5.40067 6.5677L5.50541 7.05661L5.50584 7.05651L5.40067 6.5677ZM5.01924 8.83647L5.07376 9.33349L5.07453 9.33341L5.01924 8.83647ZM8.02002 9.5972L7.71505 9.99345L7.71875 9.99624L8.02002 9.5972ZM4.24845 9.16926L4.58621 9.53793L4.5865 9.53767L4.24845 9.16926ZM3.90294 10.2871L3.43732 10.4694L3.43867 10.4727L3.90294 10.2871ZM4.2373 10.6215L4.05169 11.0858L4.05347 11.0865L4.2373 10.6215ZM4.72768 10.6577L4.77671 11.1553L4.77743 11.1552L4.72768 10.6577ZM6.5884 11.0923L6.87875 10.6853L6.87645 10.6837L6.5884 11.0923ZM7.08852 11.5903L6.68209 11.8815L6.6823 11.8818L7.08852 11.5903ZM7.55219 13.208L8.05185 13.2265L8.05193 13.224L7.55219 13.208ZM7.52896 13.5204L7.0314 13.4711L7.03127 13.4725L7.52896 13.5204ZM8.31595 14.325L8.38288 14.8205L8.38466 14.8202L8.31595 14.325ZM8.98299 13.9806L9.33654 14.3341V14.3341L8.98299 13.9806ZM9.36174 13.1153L9.85965 13.161L9.8597 13.1604L9.36174 13.1153ZM8.68701 10.2927L8.27512 10.5762L8.27556 10.5768L8.68701 10.2927ZM6.06702 11.4321L6.36718 11.0322L6.36615 11.0314L6.06702 11.4321ZM5.09841 11.1383L5.11523 11.638L5.11564 11.638L5.09841 11.1383ZM6.58404 13.0935L7.05838 13.2516L7.05858 13.251L6.58404 13.0935ZM6.47114 13.3398L6.03398 13.0969L6.02946 13.1054L6.47114 13.3398ZM6.2261 13.6541L5.87254 13.3006L5.87015 13.303L6.2261 13.6541ZM5.70138 14.0044L5.52702 13.5357L5.52678 13.5358L5.70138 14.0044ZM4.44668 13.9094L4.7012 13.479L4.70034 13.4785L4.44668 13.9094ZM3.95917 13.4758L4.3808 13.207L4.37925 13.2046L3.95917 13.4758ZM3.72567 12.2827L3.23877 12.169L3.23832 12.1709L3.72567 12.2827ZM15 5H1V6H15V5ZM15.5 15.5V5.5H14.5V15.5H15.5ZM7 16H15V15H7V16ZM6.35355 16.8536L7.35355 15.8536L6.64645 15.1465L5.64645 16.1465L6.35355 16.8536ZM5.35355 17.8536L6.35355 16.8536L5.64645 16.1465L4.64645 17.1465L5.35355 17.8536ZM4.35355 18.8536L5.35355 17.8536L4.64645 17.1465L3.64645 18.1465L4.35355 18.8536ZM3.5 15.5V18.5H4.5V15.5H3.5ZM1 16H4V15H1V16ZM0.5 5.5V15.5H1.5V5.5H0.5ZM10.6154 7.33759C9.63855 6.44689 8.40048 5.98348 6.97197 5.94348L6.94397 6.94308C8.16209 6.9772 9.16227 7.3659 9.94165 8.07654L10.6154 7.33759ZM11.0792 7.83446C10.9539 7.68239 10.7362 7.44836 10.6165 7.3386L9.94055 8.07552C10.0181 8.14667 10.204 8.34484 10.3073 8.47025L11.0792 7.83446ZM12.2808 11.7306C12.3343 10.224 11.9298 8.86082 11.0782 7.83331L10.3083 8.4714C10.9757 9.2768 11.3279 10.3866 11.2814 11.6951L12.2808 11.7306ZM12.1197 13.0361C12.162 12.8976 12.1974 12.6573 12.2231 12.4404C12.2506 12.2079 12.2733 11.9438 12.2808 11.7304L11.2814 11.6953C11.2751 11.8738 11.2553 12.1093 11.23 12.3229C11.2174 12.4291 11.204 12.5261 11.191 12.6046C11.1845 12.6439 11.1785 12.6766 11.1731 12.7023C11.1705 12.7151 11.1682 12.7251 11.1663 12.7328C11.1644 12.7406 11.1633 12.7441 11.1633 12.7441L12.1197 13.0361ZM11.6813 13.7636C11.8714 13.5734 12.0426 13.2911 12.1201 13.0349L11.163 12.7453C11.1344 12.8396 11.0511 12.9796 10.9742 13.0565L11.6813 13.7636ZM11.2703 14.0722C11.4017 13.9991 11.5755 13.8693 11.6813 13.7636L10.9742 13.0565C10.9372 13.0934 10.8385 13.168 10.7839 13.1984L11.2703 14.0722ZM10.1812 14.2019C10.5441 14.3301 10.9543 14.2482 11.2704 14.0721L10.7838 13.1985C10.6443 13.2762 10.5358 13.2666 10.5142 13.259L10.1812 14.2019ZM9.82019 13.9651C9.85894 14.0039 9.91321 14.0573 9.98069 14.1033C10.0576 14.1557 10.1287 14.1831 10.1785 14.201L10.5168 13.26C10.5109 13.2578 10.5079 13.2567 10.5068 13.2563C10.5059 13.2559 10.5076 13.2565 10.5111 13.2581C10.5147 13.2598 10.5199 13.2624 10.5259 13.2658C10.5321 13.2693 10.538 13.2729 10.5434 13.2766C10.5542 13.284 10.5593 13.2888 10.5564 13.2862C10.5548 13.2848 10.5518 13.282 10.5468 13.2772C10.5417 13.2724 10.5354 13.2662 10.5273 13.258L9.82019 13.9651ZM9.58162 13.5936C9.59777 13.6427 9.62443 13.7198 9.68027 13.8027C9.72748 13.8728 9.7845 13.9294 9.82019 13.9651L10.5273 13.258C10.5184 13.2492 10.5117 13.2424 10.5064 13.2369C10.5011 13.2314 10.4982 13.2282 10.4968 13.2267C10.494 13.2236 10.5004 13.2304 10.5096 13.244C10.5143 13.251 10.5189 13.2585 10.5232 13.2664C10.5274 13.2742 10.5305 13.2808 10.5326 13.2855C10.5346 13.2901 10.5354 13.2925 10.5351 13.2917C10.5348 13.2907 10.5337 13.2877 10.5315 13.2811L9.58162 13.5936ZM9.55307 12.925C9.51374 13.1779 9.50448 13.3629 9.58239 13.5959L10.5308 13.2788C10.5261 13.2648 10.5248 13.2587 10.5245 13.2567C10.5242 13.2553 10.5237 13.2523 10.5235 13.2448C10.523 13.2244 10.5252 13.1815 10.5412 13.0787L9.55307 12.925ZM9.53226 11.1552C9.6459 11.6798 9.65567 12.24 9.55265 12.9278L10.5416 13.0759C10.6585 12.2958 10.6541 11.6107 10.5096 10.9435L9.53226 11.1552ZM7.4872 8.80857C8.55264 9.17496 9.28461 10.0054 9.53214 11.1546L10.5097 10.9441C10.1909 9.46401 9.21998 8.34697 7.81239 7.86292L7.4872 8.80857ZM5.33202 8.66974C6.15023 8.5401 6.85807 8.59321 7.48786 8.8088L7.81173 7.86269C7.0034 7.586 6.12754 7.53123 5.17554 7.68206L5.33202 8.66974ZM4.99902 8.70425C5.08082 8.70455 5.2319 8.68514 5.32978 8.67009L5.17778 7.68171C5.13329 7.68855 5.08603 7.69477 5.04701 7.69915C5.02748 7.70133 5.01187 7.70285 5.00087 7.70375C4.98609 7.70495 4.98959 7.70421 5.00264 7.70426L4.99902 8.70425ZM3.97937 7.86851C4.02267 8.10538 4.13973 8.32282 4.33435 8.47923C4.52696 8.63401 4.76134 8.70182 4.99569 8.70423L5.00596 7.70428C4.98063 7.70402 4.96628 7.7004 4.96056 7.69852C4.95527 7.69679 4.95656 7.69635 4.96078 7.69974C4.96516 7.70327 4.96786 7.70704 4.96867 7.70845C4.96926 7.70949 4.9659 7.70415 4.96307 7.68871L3.97937 7.86851ZM4.46165 6.54801C4.12492 6.88474 3.89138 7.379 3.97911 7.86706L4.96334 7.69015C4.951 7.62154 4.98365 7.44022 5.16876 7.25512L4.46165 6.54801ZM5.29594 6.07879C4.97879 6.14673 4.69401 6.31565 4.46165 6.54801L5.16876 7.25512C5.28498 7.1389 5.40286 7.07857 5.50541 7.05661L5.29594 6.07879ZM6.97263 5.94349C6.43227 5.92765 5.75138 5.98081 5.29551 6.07888L5.50584 7.05651C5.86861 6.97847 6.46725 6.9291 6.94331 6.94307L6.97263 5.94349ZM5.07453 9.33341C6.11905 9.21719 7.01214 9.45244 7.71507 9.99343L8.32498 9.20096C7.38979 8.48121 6.22939 8.19875 4.96395 8.33954L5.07453 9.33341ZM4.5865 9.53767C4.72195 9.41338 4.83025 9.3602 5.07376 9.33349L4.96473 8.33945C4.53602 8.38647 4.22117 8.5157 3.91041 8.80085L4.5865 9.53767ZM4.36856 10.1049C4.32835 10.0022 4.35492 9.74983 4.58621 9.53793L3.9107 8.80058C3.46415 9.20968 3.20669 9.88 3.43733 10.4693L4.36856 10.1049ZM4.42291 10.1572C4.43455 10.1619 4.44071 10.1655 4.44116 10.1657C4.44193 10.1662 4.43984 10.165 4.43514 10.1616C4.42529 10.1544 4.41146 10.1428 4.39652 10.1279C4.38159 10.113 4.37003 10.0991 4.36286 10.0893C4.35944 10.0846 4.35827 10.0825 4.35871 10.0833C4.35897 10.0837 4.36256 10.0899 4.36722 10.1015L3.43867 10.4727C3.49829 10.6219 3.60376 10.7494 3.68942 10.835C3.77508 10.9207 3.90257 11.0261 4.05169 11.0858L4.42291 10.1572ZM4.67865 10.1601C4.57412 10.1704 4.51541 10.1711 4.4789 10.1684C4.44913 10.1662 4.43492 10.162 4.42113 10.1565L4.05347 11.0865C4.29084 11.1803 4.51532 11.1811 4.77671 11.1553L4.67865 10.1601ZM6.87645 10.6837C6.25021 10.2423 5.50777 10.0772 4.67793 10.1602L4.77743 11.1552C5.4076 11.0922 5.90087 11.2195 6.30035 11.501L6.87645 10.6837ZM7.49496 11.299C7.3568 11.1062 7.06792 10.8202 6.87875 10.6853L6.29805 11.4994C6.39966 11.5719 6.6095 11.7802 6.68209 11.8815L7.49496 11.299ZM8.05193 13.224C8.07459 12.5177 7.88883 11.8479 7.49475 11.2988L6.6823 11.8818C6.93501 12.2339 7.0688 12.6823 7.05245 13.1919L8.05193 13.224ZM8.02652 13.5698C8.03759 13.4582 8.04883 13.3081 8.05185 13.2265L7.05253 13.1895C7.05054 13.2432 7.04132 13.3711 7.0314 13.4711L8.02652 13.5698ZM8.05917 13.7977C8.03641 13.7749 8.03304 13.7645 8.03001 13.7537C8.02431 13.7332 8.01572 13.6818 8.02665 13.5684L7.03127 13.4725C7.01384 13.6532 7.01585 13.8395 7.06669 14.022C7.12021 14.2141 7.21935 14.3721 7.35206 14.5048L8.05917 13.7977ZM8.24902 13.8295C8.16829 13.8404 8.12606 13.8334 8.10722 13.828C8.09268 13.8239 8.07897 13.8175 8.05917 13.7977L7.35206 14.5048C7.64061 14.7933 8.00507 14.8715 8.38288 14.8205L8.24902 13.8295ZM8.62944 13.627C8.49501 13.7615 8.3896 13.81 8.24724 13.8297L8.38466 14.8202C8.7625 14.7678 9.06289 14.6078 9.33654 14.3341L8.62944 13.627ZM8.86383 13.0697C8.84869 13.2347 8.82282 13.3331 8.79169 13.4043C8.76219 13.4716 8.7172 13.5393 8.62944 13.627L9.33654 14.3341C9.49121 14.1795 9.61753 14.0114 9.70777 13.8053C9.79637 13.6028 9.83866 13.3899 9.85965 13.161L8.86383 13.0697ZM8.27556 10.5768C8.75832 11.276 8.95509 12.0621 8.86378 13.0702L9.8597 13.1604C9.96919 11.9516 9.73144 10.9254 9.09847 10.0086L8.27556 10.5768ZM7.71875 9.99624C7.71874 9.99623 7.72806 10.0035 7.74915 10.0225C7.76857 10.04 7.79267 10.0625 7.82067 10.0896C7.87663 10.1436 7.94253 10.2101 8.00837 10.2788C8.07422 10.3475 8.1376 10.4159 8.18876 10.4736C8.21437 10.5025 8.23558 10.5272 8.25185 10.5469C8.26967 10.5685 8.27588 10.5773 8.27512 10.5762L9.0989 10.0093C9.02586 9.90312 8.86298 9.72527 8.73039 9.58691C8.5974 9.44812 8.42607 9.27726 8.32129 9.19815L7.71875 9.99624ZM6.36615 11.0314C5.9865 10.748 5.56048 10.6221 5.08118 10.6386L5.11564 11.638C5.38043 11.6289 5.58048 11.6928 5.76789 11.8327L6.36615 11.0314ZM7.05858 13.251C7.32616 12.4448 7.04388 11.5402 6.36718 11.0322L5.76685 11.832C6.09853 12.0809 6.24219 12.5362 6.10949 12.936L7.05858 13.251ZM6.90822 13.5826C6.96371 13.4827 7.02813 13.3423 7.05838 13.2516L6.1097 12.9354C6.11012 12.9341 6.10819 12.9398 6.10254 12.9536C6.09735 12.9662 6.09057 12.9819 6.08262 12.9994C6.06623 13.0354 6.04845 13.0711 6.03406 13.097L6.90822 13.5826ZM6.57965 14.0077C6.65099 13.9363 6.71487 13.8704 6.77075 13.7987C6.83142 13.721 6.87302 13.6492 6.91281 13.5742L6.02946 13.1054C6.00255 13.1562 5.99218 13.171 5.9823 13.1836C5.96762 13.2025 5.94233 13.2308 5.87255 13.3006L6.57965 14.0077ZM5.87575 14.473C6.17389 14.362 6.3508 14.2397 6.58205 14.0053L5.87015 13.303C5.72679 13.4483 5.6702 13.4825 5.52702 13.5357L5.87575 14.473ZM4.19216 14.3398C4.68807 14.6331 5.3304 14.6762 5.87599 14.4729L5.52678 13.5358C5.24616 13.6404 4.92116 13.6091 4.7012 13.479L4.19216 14.3398ZM3.53754 13.7445C3.60647 13.8527 3.68125 13.9691 3.80346 14.078C3.91194 14.1746 4.04521 14.2533 4.19302 14.3403L4.70034 13.4785C4.52998 13.3783 4.48941 13.3498 4.46863 13.3313C4.4616 13.325 4.4517 13.3183 4.38079 13.207L3.53754 13.7445ZM3.23832 12.1709C3.11286 12.718 3.22576 13.2615 3.53908 13.747L4.37925 13.2046C4.19736 12.9228 4.15374 12.653 4.21302 12.3944L3.23832 12.1709ZM5.08158 10.6386C4.20141 10.6682 3.43882 11.3123 3.23877 12.169L4.21257 12.3964C4.31272 11.9675 4.69965 11.652 5.11523 11.638L5.08158 10.6386Z"/>
</g>

<g id="academy">
<rect y="13.3284" width="4" height="4" transform="rotate(-45 0 13.3284)" fill="#FEC400"/>
<path fill-rule="evenodd" clip-rule="evenodd" d="M8.52842 2.98376L12 1L22 7L12 13.5L1.5 7L6.58697 4.09316L11.4453 7.33205C11.9048 7.6384 12.5257 7.51423 12.8321 7.0547C13.1384 6.59517 13.0142 5.9743 12.5547 5.66795L8.52842 2.98376ZM7.5 13V16L12 19L17 16V13L12 16L7.5 13Z"/>
<path d="M12 1L12.2572 0.571254L12.0062 0.420603L11.7519 0.565878L12 1ZM8.52842 2.98376L8.28035 2.54964L7.57792 2.95102L8.25107 3.39979L8.52842 2.98376ZM22 7L22.2725 7.41922L22.9436 6.98304L22.2572 6.57125L22 7ZM12 13.5L11.7368 13.9251L12.0065 14.0921L12.2725 13.9192L12 13.5ZM1.5 7L1.25193 6.56588L0.522301 6.98281L1.23682 7.42513L1.5 7ZM6.58697 4.09316L6.86432 3.67714L6.6072 3.50572L6.3389 3.65904L6.58697 4.09316ZM11.4453 7.33205L11.7227 6.91603V6.91603L11.4453 7.33205ZM12.8321 7.0547L13.2481 7.33205V7.33205L12.8321 7.0547ZM12.5547 5.66795L12.2773 6.08397L12.5547 5.66795ZM7.5 16H7V16.2676L7.22265 16.416L7.5 16ZM7.5 13L7.77735 12.584L7 12.0657V13H7.5ZM12 19L11.7226 19.416L11.9859 19.5915L12.2572 19.4287L12 19ZM17 16L17.2572 16.4287L17.5 16.2831V16H17ZM17 13H17.5V12.1169L16.7428 12.5713L17 13ZM12 16L11.7226 16.416L11.9859 16.5915L12.2572 16.4287L12 16ZM11.7519 0.565878L8.28035 2.54964L8.77649 3.41788L12.2481 1.43412L11.7519 0.565878ZM22.2572 6.57125L12.2572 0.571254L11.7428 1.42875L21.7428 7.42875L22.2572 6.57125ZM12.2725 13.9192L22.2725 7.41922L21.7275 6.58078L11.7275 13.0808L12.2725 13.9192ZM1.23682 7.42513L11.7368 13.9251L12.2632 13.0749L1.76318 6.57487L1.23682 7.42513ZM6.3389 3.65904L1.25193 6.56588L1.74807 7.43412L6.83504 4.52728L6.3389 3.65904ZM11.7227 6.91603L6.86432 3.67714L6.30962 4.50919L11.1679 7.74808L11.7227 6.91603ZM12.416 6.77735C12.2628 7.00711 11.9524 7.0692 11.7227 6.91603L11.1679 7.74808C11.8572 8.2076 12.7885 8.02134 13.2481 7.33205L12.416 6.77735ZM12.2773 6.08397C12.5071 6.23715 12.5692 6.54759 12.416 6.77735L13.2481 7.33205C13.7076 6.64276 13.5213 5.71145 12.8321 5.25192L12.2773 6.08397ZM8.25107 3.39979L12.2773 6.08397L12.8321 5.25192L8.80577 2.56774L8.25107 3.39979ZM8 16V13H7V16H8ZM12.2774 18.584L7.77735 15.584L7.22265 16.416L11.7226 19.416L12.2774 18.584ZM16.7428 15.5713L11.7428 18.5713L12.2572 19.4287L17.2572 16.4287L16.7428 15.5713ZM16.5 13V16H17.5V13H16.5ZM12.2572 16.4287L17.2572 13.4287L16.7428 12.5713L11.7428 15.5713L12.2572 16.4287ZM7.22265 13.416L11.7226 16.416L12.2774 15.584L7.77735 12.584L7.22265 13.416Z"/>
</g>

<g id="blog">
<rect y="1" width="20" height="2" fill="#FEC400"/>
<path fill-rule="evenodd" clip-rule="evenodd" d="M0.5 5.5H19.5V18H0.5V5.5ZM17.5 7H2.5V9.5H17.5V7ZM8.5 10.5H2.5V16H8.5V10.5ZM17.5 13.5H9.5V16H17.5V13.5ZM17.5 10.5H9.5V13H17.5V10.5Z" />
<path d="M19.5 5.5H20V5H19.5V5.5ZM0.5 5.5V5H0V5.5H0.5ZM19.5 18V18.5H20V18H19.5ZM0.5 18H0V18.5H0.5V18ZM2.5 7V6.5H2V7H2.5ZM17.5 7H18V6.5H17.5V7ZM2.5 9.5H2V10H2.5V9.5ZM17.5 9.5V10H18V9.5H17.5ZM2.5 10.5V10H2V10.5H2.5ZM8.5 10.5H9V10H8.5V10.5ZM2.5 16H2V16.5H2.5V16ZM8.5 16V16.5H9V16H8.5ZM9.5 13.5V13H9V13.5H9.5ZM17.5 13.5H18V13H17.5V13.5ZM9.5 16H9V16.5H9.5V16ZM17.5 16V16.5H18V16H17.5ZM9.5 10.5V10H9V10.5H9.5ZM17.5 10.5H18V10H17.5V10.5ZM9.5 13H9V13.5H9.5V13ZM17.5 13V13.5H18V13H17.5ZM19.5 5H0.5V6H19.5V5ZM20 18V5.5H19V18H20ZM0.5 18.5H19.5V17.5H0.5V18.5ZM0 5.5V18H1V5.5H0ZM2.5 7.5H17.5V6.5H2.5V7.5ZM3 9.5V7H2V9.5H3ZM17.5 9H2.5V10H17.5V9ZM17 7V9.5H18V7H17ZM2.5 11H8.5V10H2.5V11ZM3 16V10.5H2V16H3ZM8.5 15.5H2.5V16.5H8.5V15.5ZM8 10.5V16H9V10.5H8ZM9.5 14H17.5V13H9.5V14ZM10 16V13.5H9V16H10ZM17.5 15.5H9.5V16.5H17.5V15.5ZM17 13.5V16H18V13.5H17ZM9.5 11H17.5V10H9.5V11ZM10 13V10.5H9V13H10ZM17.5 12.5H9.5V13.5H17.5V12.5ZM17 10.5V13H18V10.5H17Z" />
</g>

<g id="research">
<circle cx="14" cy="15" r="3.5" fill="#FEC400"/>
<path d="M9 20H18V22H2V20H4.5C4.5 20 2.51635 16.7854 2.5 14.5C2.48332 12.1686 4.5 8.875 4.5 8.875L3 7.5L4 6.5L2 5L4.5 2L6.5 4L7.5 3L13 8.5L9 13L6 10.25C6 10.25 4.50405 13.4727 5 15.5C5.55872 17.7839 9 20 9 20Z" />
<path d="M4.5 20H2V22H18V20H9C9 20 5.55872 17.7839 5 15.5M4.5 20L5 15.5M4.5 20C4.5 20 2.51635 16.7854 2.5 14.5C2.48332 12.1686 4.5 8.875 4.5 8.875M6.5 4L7.5 3L13 8.5L9 13L6 10.25M6.5 4L4.5 2L2 5L4 6.5M6.5 4L4 6.5M4 6.5L3 7.5L4.5 8.875M6 10.25C6 10.25 4.50405 13.4727 5 15.5M6 10.25L4.5 8.875" />
</g>

<g id="vip">
<rect x="5.5" y="2" width="9" height="3" fill="#FEC400"/>
<path d="M1 11.5H8.5V9H11.5V11.5H19V6.5H18.5H1V11.5Z" />
<path d="M19 18.5V14.5H11.5V17H8.5V14.5H1V18.5H19Z" />
<path d="M1 11.5H8.5V9H11.5V11.5H19V6.5H18.5H1V11.5Z" />
<path d="M19 18.5V14.5H11.5V17H8.5V14.5H1V18.5H19Z" />
</g>

<g id="launchpool">
<rect x="1.5" y="15.3284" width="4" height="4" transform="rotate(-45 1.5 15.3284)" fill="#FEC400"/>
<path fill-rule="evenodd" clip-rule="evenodd" d="M5 12L1 8L4 5H8L13 1H19L19.5 7.5L15.5 11.5V15.5L12 19L8 15L11 12L8 9L5 12ZM15 3L12.5 5.5L14.5 7.5L17 5L15 3Z" />
</g>

<g id="megadrop">
<path fill-rule="evenodd" clip-rule="evenodd" d="M10 17C5.82645 17 2.25749 13.8889 2.01241 9.47059C1.75336 4.80048 5.58857 1 10 1C14.4114 1 18.2466 4.80048 17.9876 9.47059C17.7473 13.8031 14.3108 16.8788 10.2422 16.9965L15.54 11H4.93L10.2362 16.9967C10.1577 16.9989 10.079 17 10 17ZM9 10V3L4 10H9ZM11.1957 10V3L16.5 10H11.1957Z" />
<path d="M2.01241 9.47059L1.51317 9.49828L2.01241 9.47059ZM17.9876 9.47059L18.4868 9.49828L18.4868 9.49828L17.9876 9.47059ZM10.2422 16.9965L9.86751 16.6655L9.10402 17.5296L10.2567 17.4963L10.2422 16.9965ZM15.54 11L15.9147 11.331L16.6489 10.5H15.54V11ZM4.93 11V10.5H3.81993L4.55555 11.3313L4.93 11ZM10.2362 16.9967L10.2503 17.4965L11.3194 17.4663L10.6106 16.6653L10.2362 16.9967ZM9 3H9.5V1.43977L8.59313 2.70938L9 3ZM9 10V10.5H9.5V10H9ZM4 10L3.59313 9.70938L3.02841 10.5H4V10ZM11.1957 3L11.5942 2.69802L10.6957 1.51228V3H11.1957ZM11.1957 10H10.6957V10.5H11.1957V10ZM16.5 10V10.5H17.5062L16.8985 9.69802L16.5 10ZM1.51317 9.49828C1.77363 14.1939 5.57358 17.5 10 17.5V16.5C6.07932 16.5 2.74134 13.5839 2.51164 9.4429L1.51317 9.49828ZM10 0.5C5.31042 0.5 1.23774 4.53281 1.51317 9.49828L2.51164 9.4429C2.26897 5.06816 5.86673 1.5 10 1.5V0.5ZM18.4868 9.49828C18.7623 4.53281 14.6896 0.5 10 0.5V1.5C14.1333 1.5 17.731 5.06816 17.4884 9.4429L18.4868 9.49828ZM10.2567 17.4963C14.5727 17.3714 18.2314 14.1023 18.4868 9.49828L17.4884 9.4429C17.2631 13.504 14.0488 16.3862 10.2278 16.4967L10.2567 17.4963ZM10.6169 17.3275L15.9147 11.331L15.1653 10.669L9.86751 16.6655L10.6169 17.3275ZM15.54 10.5H4.93V11.5H15.54V10.5ZM4.55555 11.3313L9.86173 17.328L10.6106 16.6653L5.30445 10.6687L4.55555 11.3313ZM10 17.5C10.0836 17.5 10.1671 17.4988 10.2503 17.4965L10.2221 16.4969C10.1483 16.499 10.0743 16.5 10 16.5V17.5ZM8.5 3V10H9.5V3H8.5ZM4.40687 10.2906L9.40687 3.29062L8.59313 2.70938L3.59313 9.70938L4.40687 10.2906ZM9 9.5H4V10.5H9V9.5ZM10.6957 3V10H11.6957V3H10.6957ZM16.8985 9.69802L11.5942 2.69802L10.7971 3.30198L16.1015 10.302L16.8985 9.69802ZM11.1957 10.5H16.5V9.5H11.1957V10.5Z" />
<path fill-rule="evenodd" clip-rule="evenodd" d="M18 15.5H2V23.5H18V15.5ZM9.5 17.5V17.5187V17.5373V17.5559V17.5743V17.5927V17.611V17.6292V17.6473V17.6653V17.6833V17.7011V17.7189V17.7366V17.7542V17.7717V17.7892V17.8065V17.8238V17.841V17.8581V17.8752V17.8921V17.909V17.9258V17.9425V17.9591V17.9756V17.9921V18.0085V18.0248V18.041V18.0571V18.0732V18.0892V18.1051V18.1209V18.1366V18.1523V18.1679V18.1834V18.1988V18.2141V18.2294V18.2446V18.2597V18.2747V18.2897V18.3045V18.3193V18.334V18.3487V18.3632V18.3777V18.3921V18.4065V18.4207V18.4349V18.449V18.463V18.477V18.4909V18.5047V18.5184V18.532V18.5456V18.5591V18.5725V18.5859V18.5991V18.6123V18.6255V18.6385V18.6515V18.6644V18.6772V18.69V18.7027V18.7153V18.7278V18.7403V18.7527V18.765V18.7773V18.7894V18.8015V18.8136V18.8255V18.8374V18.8492V18.861V18.8727V18.8843V18.8958V18.9073V18.9187V18.93V18.9412V18.9524V18.9635V18.9746V18.9856V18.9965V19H7.33333V20L9.5 20V20.0006V20.0006V20.0012V20.0017V20.0022V20.0023V20.0027V20.0027V20.0031V20.0032V20.0035V20.0036V20.0039V20.004V20.0042V20.0043V20.0045V20.0046V20.0048V20.0049V20.005V20.0051V20.0052V20.0053V20.0054V20.0055V20.0055V20.0056V20.0056V20.0057V20.0057V20.0057V21.5H10.5V20.0057V20.0057V20.0057V20.0056V20.0056V20.0055V20.0055V20.0054V20.0053V20.0052V20.0051V20.005V20.0049V20.0048V20.0046V20.0045V20.0043V20.0042V20.004V20.0039V20.0036V20.0035V20.0032V20.0031V20.0027V20.0027V20.0023V20.0022V20.0017V20.0012V20.0006V20.0006V20L12.6667 20V19H10.5V18.9965V18.9856V18.9746V18.9635V18.9524V18.9412V18.93V18.9187V18.9073V18.8958V18.8843V18.8727V18.861V18.8492V18.8374V18.8255V18.8136V18.8015V18.7894V18.7773V18.765V18.7527V18.7403V18.7278V18.7153V18.7027V18.69V18.6772V18.6644V18.6515V18.6385V18.6255V18.6123V18.5991V18.5859V18.5725V18.5591V18.5456V18.532V18.5184V18.5047V18.4909V18.477V18.463V18.449V18.4349V18.4207V18.4065V18.3921V18.3777V18.3632V18.3487V18.334V18.3193V18.3045V18.2897V18.2747V18.2597V18.2446V18.2294V18.2141V18.1988V18.1834V18.1679V18.1523V18.1366V18.1209V18.1051V18.0892V18.0732V18.0571V18.041V18.0248V18.0085V17.9921V17.9756V17.9591V17.9425V17.9258V17.909V17.8921V17.8752V17.8581V17.841V17.8238V17.8065V17.7892V17.7717V17.7542V17.7366V17.7189V17.7011V17.6833V17.6653V17.6473V17.6292V17.611V17.5927V17.5743V17.5559V17.5373V17.5187V17.5H9.5Z" fill="#FEC400"/>
</g>

<g id="mining">
<path fill-rule="evenodd" clip-rule="evenodd" d="M5.10577 9.5C7.03877 9.5 8.60577 7.933 8.60577 6C8.60577 4.067 7.03877 2.5 5.10577 2.5C3.17278 2.5 1.60577 4.067 1.60577 6C1.60577 7.933 3.17278 9.5 5.10577 9.5ZM5.01999 4.5L3.60577 5.91422L5.01999 7.32843L6.4342 5.91422L5.01999 4.5Z" fill="#FEC400"/>
<path d="M14.6058 7.5L5.6058 16L4.1058 14.5L13.1058 6L8.6058 1C8.6058 1 13.1305 1.66399 15.5709 3.5349L17.6058 1.5L19.1058 3L16.9798 5.12597C18.6308 7.79168 19.1058 12 19.1058 12L14.6058 7.5Z" />
<path d="M1.1058 17.5C1.32037 16.8295 1.56342 16.4489 2.1058 16C3.67632 14.7003 5.6058 18.5 5.6058 18.5C7.94894 16.3521 10.6058 12 13.1058 12C15.6058 12 14.6058 15.5 14.6058 15.5C14.6058 15.5 16.9315 14.8004 18.1058 15.5C19.5391 16.3539 19.6058 19.5 19.6058 19.5H5.6058H1.1058C1.1058 19.5 0.867753 18.2439 1.1058 17.5Z" />
<path d="M14.6058 7.5L5.6058 16L4.1058 14.5L13.1058 6M14.6058 7.5L19.1058 12C19.1058 12 18.4687 6.35578 16.1058 4C13.8718 1.77278 8.6058 1 8.6058 1L13.1058 6M14.6058 7.5L19.1058 3L17.6058 1.5L13.1058 6M2.1058 16C1.56342 16.4489 1.32037 16.8295 1.1058 17.5C0.867753 18.2439 1.1058 19.5 1.1058 19.5H5.6058H19.6058C19.6058 19.5 19.5391 16.3539 18.1058 15.5C16.9315 14.8004 14.6058 15.5 14.6058 15.5C14.6058 15.5 15.6058 12 13.1058 12C10.6058 12 7.94894 16.3521 5.6058 18.5C5.6058 18.5 3.67632 14.7003 2.1058 16Z" />
</g>

<g id="pay">
<path fill-rule="evenodd" clip-rule="evenodd" d="M20.8988 7.5C20.8988 10.3356 19.0831 12.7471 16.5509 13.6353C16.4757 13.5603 16.3773 13.4633 16.2602 13.3501C15.9819 13.0813 15.5944 12.7181 15.1606 12.3441C14.7296 11.9725 14.238 11.5775 13.753 11.2524C13.2952 10.9454 12.7386 10.6279 12.1961 10.5194C11.2476 10.3297 10.2359 10.716 9.62187 11.0035C9.43188 11.0925 9.25635 11.1836 9.10217 11.2686C8.34449 10.2056 7.8988 8.90486 7.8988 7.5C7.8988 3.91015 10.809 1 14.3988 1C17.9887 1 20.8988 3.91015 20.8988 7.5ZM13.8548 13.859C13.9049 13.9022 13.9544 13.9453 14.0032 13.9882C12.7298 13.9117 11.5552 13.4686 10.5836 12.7631C11.1163 12.5276 11.5587 12.4316 11.8039 12.4806C11.9383 12.5075 12.2203 12.6327 12.6393 12.9136C13.0313 13.1764 13.4551 13.5144 13.8548 13.859ZM14.2801 5.25868L12.1588 7.38L14.2801 9.50132L16.4015 7.38L14.2801 5.25868Z" fill="#FEC400"/>
<path d="M1.89881 10.5C3.11238 8.63351 6.89881 6.5 6.89881 6.5C6.89881 6.5 6.64622 8.35598 6.89881 9.5C7.12881 10.5417 8 12 8 12L5.5 15L6.89881 16C6.89881 16 9.8043 11.4325 12.3988 12C13.2519 12.1866 14.8988 13.5 14.8988 13.5L8.5 20H1.89881C1.89881 20 -0.123507 13.6103 1.89881 10.5Z" />
</g>

<g id="loans">
<path fill-rule="evenodd" clip-rule="evenodd" d="M4 1H12L9.5 4L15 8V19H1.5V8L7 4L4 1ZM8.20685 5.2929L2.55 10.9498L8.20685 16.6066L13.8637 10.9498L8.20685 5.2929Z" />
<path d="M12 1L12.3841 1.32009L13.0675 0.5H12V1ZM4 1V0.5H2.79289L3.64645 1.35355L4 1ZM9.5 4L9.11589 3.67991L8.77396 4.09022L9.20591 4.40437L9.5 4ZM15 8H15.5V7.74539L15.2941 7.59563L15 8ZM15 19V19.5H15.5V19H15ZM1.5 19H1V19.5H1.5V19ZM1.5 8L1.20591 7.59563L1 7.74539V8H1.5ZM7 4L7.29409 4.40437L7.76731 4.0602L7.35355 3.64645L7 4ZM2.55 10.9498L2.19645 10.5962L1.84289 10.9498L2.19645 11.3033L2.55 10.9498ZM8.20685 5.2929L8.56041 4.93935L8.20685 4.58579L7.8533 4.93935L8.20685 5.2929ZM8.20685 16.6066L7.8533 16.9602L8.20685 17.3137L8.56041 16.9602L8.20685 16.6066ZM13.8637 10.9498L14.2173 11.3033L14.5708 10.9498L14.2173 10.5962L13.8637 10.9498ZM12 0.5H4V1.5H12V0.5ZM9.88411 4.32009L12.3841 1.32009L11.6159 0.679908L9.11589 3.67991L9.88411 4.32009ZM15.2941 7.59563L9.79409 3.59563L9.20591 4.40437L14.7059 8.40437L15.2941 7.59563ZM15.5 19V8H14.5V19H15.5ZM1.5 19.5H15V18.5H1.5V19.5ZM1 8V19H2V8H1ZM6.70591 3.59563L1.20591 7.59563L1.79409 8.40437L7.29409 4.40437L6.70591 3.59563ZM3.64645 1.35355L6.64645 4.35355L7.35355 3.64645L4.35355 0.646447L3.64645 1.35355ZM2.90355 11.3033L8.56041 5.64645L7.8533 4.93935L2.19645 10.5962L2.90355 11.3033ZM8.56041 16.2531L2.90355 10.5962L2.19645 11.3033L7.8533 16.9602L8.56041 16.2531ZM13.5102 10.5962L7.8533 16.2531L8.56041 16.9602L14.2173 11.3033L13.5102 10.5962ZM7.8533 5.64645L13.5102 11.3033L14.2173 10.5962L8.56041 4.93935L7.8533 5.64645Z" />
<path d="M5.20001 11.0355L8.23558 8L11 11.0355L8.23555 14L5.20001 11.0355Z" fill="#FEC400"/>
</g>

<g id="nft">
<rect x="5" y="8.12132" width="3" height="3" transform="rotate(-45 5 8.12132)" fill="#FEC400"/>
<path fill-rule="evenodd" clip-rule="evenodd" d="M19.5 1H1V15H19.5V1ZM7 4L3 8L7 12L11 8L7 4ZM16.5 12H13.5V4H16.5V12Z" />
</g>

<g id="token">
<rect x="6" y="3.5" width="4" height="4" transform="rotate(-45 6 3.5)" fill="#FEC400"/>
<path d="M5 11.5355H1V17.5355H5V11.5355Z" />
<path d="M11 7.53553H7V17.5355H11V7.53553Z" />
<path d="M17 10.5355H13V17.5355H17V10.5355Z" />
<path d="M5 11.5355H1V17.5355H5V11.5355Z" />
<path d="M11 7.53553H7V17.5355H11V7.53553Z" />
<path d="M17 10.5355H13V17.5355H17V10.5355Z" />
</g>

<g id="wallet">
<path fill-rule="evenodd" clip-rule="evenodd" d="M15.4722 11C14.3736 12.2275 12.777 13 11 13C9.223 13 7.62643 12.2275 6.52779 11H15.4722ZM16.9795 7.5H13.1094L13.6094 7L10.9985 4.38914L8.38768 7L8.88768 7.5H5.02054C5.00694 7.33513 5 7.16838 5 7C5 3.68629 7.68629 1 11 1C14.3137 1 17 3.68629 17 7C17 7.16838 16.9931 7.33513 16.9795 7.5Z" fill="#FEC400"/>
<path d="M2.5 15H1V16.5H2.5V15Z" />
<path fill-rule="evenodd" clip-rule="evenodd" d="M1.5 8.5H19.5V18.5H3.5V17.5H5.5V14.5H3.5V12.5H1.5V8.5ZM18.5 11.5H13.5V16.5H18.5V11.5Z" />
<path d="M1.5 8.5V8H1V8.5H1.5ZM19.5 8.5H20V8H19.5V8.5ZM19.5 18.5V19H20V18.5H19.5ZM3.5 18.5H3V19H3.5V18.5ZM3.5 17.5V17H3V17.5H3.5ZM5.5 17.5V18H6V17.5H5.5ZM5.5 14.5H6V14H5.5V14.5ZM3.5 14.5H3V15H3.5V14.5ZM3.5 12.5H4V12H3.5V12.5ZM1.5 12.5H1V13H1.5V12.5ZM13.5 11.5V11H13V11.5H13.5ZM18.5 11.5H19V11H18.5V11.5ZM18.5 16.5V17H19V16.5H18.5ZM13.5 16.5H13V17H13.5V16.5ZM1 15V14.5H0.5V15H1ZM2.5 15H3V14.5H2.5V15ZM2.5 16.5V17H3V16.5H2.5ZM1 16.5H0.5V17H1V16.5ZM1.5 9H19.5V8H1.5V9ZM19 8.5V18.5H20V8.5H19ZM19.5 18H3.5V19H19.5V18ZM4 18.5V17.5H3V18.5H4ZM3.5 18H5.5V17H3.5V18ZM6 17.5V14.5H5V17.5H6ZM5.5 14H3.5V15H5.5V14ZM4 14.5V12.5H3V14.5H4ZM3.5 12H1.5V13H3.5V12ZM2 12.5V8.5H1V12.5H2ZM13.5 12H18.5V11H13.5V12ZM18 11.5V16.5H19V11.5H18ZM18.5 16H13.5V17H18.5V16ZM14 16.5V11.5H13V16.5H14ZM1 15.5H2.5V14.5H1V15.5ZM2 15V16.5H3V15H2ZM2.5 16H1V17H2.5V16ZM1.5 16.5V15H0.5V16.5H1.5Z" />
</g>

<g id="bnb">
<path d="M4.5 5.35714L2.5 6.5V7.5L1 6.5V5.5L2.88889 4.5L4.5 5.35714Z" />
<path d="M9.5 2.5L6 4.5L4.5 3.64706L9.5 1L14.5 3.8125L13 4.5L9.5 2.5Z" />
<path d="M17.5 5.5L16 4.65625L14.2452 5.5L16 6.5V7.5L17.5 6.5V5.5Z" />
<path d="M10.5 19V17.5L9.5 18L8.5 17.5V19L9.5 19.5L10.5 19Z" />
<path d="M1 15.5L6.76668 18.1471V16.5L2.5 14.5V9.5L1 8.5V15.5Z" />
<path d="M9.5 8L6.76668 6.5L5 7.5V9L8.5 11V15L9.5 15.5L10.5 15V11L14 9V7.5L12.5 6.5L9.5 8Z" />
<path d="M9.5 5L10.5 5.5L9.5 6L8.5 5.5L9.5 5Z" />
<path d="M12 16.5L16 14.5V9.5L17.5 8.5V15.5L12 18.1471V16.5Z" />
<path d="M5 11V12.7L6.76668 13.7045V12L5 11Z" />
<path d="M12 13.7045V12L14 11V12.7L12 13.7045Z" />
<path d="M4.5 5.35714L2.5 6.5V7.5L1 6.5V5.5L2.88889 4.5L4.5 5.35714Z" />
<path d="M9.5 2.5L6 4.5L4.5 3.64706L9.5 1L14.5 3.8125L13 4.5L9.5 2.5Z" />
<path d="M17.5 5.5L16 4.65625L14.2452 5.5L16 6.5V7.5L17.5 6.5V5.5Z" />
<path d="M10.5 19V17.5L9.5 18L8.5 17.5V19L9.5 19.5L10.5 19Z" />
<path d="M1 15.5L6.76668 18.1471V16.5L2.5 14.5V9.5L1 8.5V15.5Z" />
<path d="M9.5 8L6.76668 6.5L5 7.5V9L8.5 11V15L9.5 15.5L10.5 15V11L14 9V7.5L12.5 6.5L9.5 8Z" />
<path d="M9.5 5L10.5 5.5L9.5 6L8.5 5.5L9.5 5Z" />
<path d="M12 16.5L16 14.5V9.5L17.5 8.5V15.5L12 18.1471V16.5Z" />
<path d="M5 11V12.7L6.76668 13.7045V12L5 11Z" />
<path d="M12 13.7045V12L14 11V12.7L12 13.7045Z" />
</g>

<g id="charity">
<path d="M10 20.5688V15L17 7.56884V13.0688L10 20.5688Z" fill="#FEC400" stroke="#FEC400"/>
<path d="M1 13.0688V8.06884L8.5 15V20.5688L1 13.0688Z" />
<path d="M3 6.06884C4 8 9 12.0688 9 12.0688C9 12.0688 14 8 15 6.06884C15.5387 5.02848 15.491 4.13258 15 3.06884C14.4761 1.93363 13.7385 1.24038 12.5 1.06884C10.8362 0.838387 9 3.56884 9 3.56884C9 3.56884 6.75433 0.506998 5 1.06884C3.94806 1.40574 3.43511 2.05358 3 3.06884C2.53849 4.14569 2.46127 5.02848 3 6.06884Z" />
<path d="M1 13.0688V8.06884L8.5 15V20.5688L1 13.0688Z" />
<path d="M3 6.06884C4 8 9 12.0688 9 12.0688C9 12.0688 14 8 15 6.06884C15.5387 5.02848 15.491 4.13258 15 3.06884C14.4761 1.93363 13.7385 1.24038 12.5 1.06884C10.8362 0.838387 9 3.56884 9 3.56884C9 3.56884 6.75433 0.506998 5 1.06884C3.94806 1.40574 3.43511 2.05358 3 3.06884C2.53849 4.14569 2.46127 5.02848 3 6.06884Z" />
</g>

<g id="s-earn">
<path fill-rule="evenodd" clip-rule="evenodd" d="M12 9a4 4 0 110-8 4 4 0 010 8zm0-5.778L10.223 5 12 6.778 13.778 5 12 3.222z" fill="#F0B90B"/>
<path fill-rule="evenodd" clip-rule="evenodd" d="M6.895 8.154A6.003 6.003 0 0017.659 7h3.591L19.5 9.5c.696.84.696 2.195.696 2.967v.033l1.97.5v2.25l-4.471 4.472 1.375 1.375-1.945 1.945-2.292-2.292H9.445l-2.403 2.403-1.945-1.945 1.617-1.616-.621-.621A6.867 6.867 0 013.97 15.25H2v-1.833h1.848a6.87 6.87 0 013.047-5.263zM18.5 12.75a1.25 1.25 0 11-2.5 0 1.25 1.25 0 012.5 0z" />
</g>

<g id="s-refferal">
<path fill-rule="evenodd" clip-rule="evenodd" d="M11 8.5a3.5 3.5 0 11-7 0 3.5 3.5 0 017 0zM2 17a3 3 0 013-3h5a3 3 0 013 3v3H2v-3zm14.5-1v-3h-3v-3h3V7h3v3h3v3h-3v3h-3z" />
<path d="M16.5 13v3h3v-3h3v-3h-3V7h-3v3h-3v3h3z" fill="#F0B90B"/>
</g>

<g id="s-lpd">
<path fill-rule="evenodd" clip-rule="evenodd" d="M14.586 3H21v6.414l-4.188 4.188-.053 4.947-2.82 2.82-4.268-4.277 2.826-2.825-2.829-2.829-2.825 2.826-4.21-4.2 2.822-2.821 4.943-.055L14.586 3zm1.766 2.265l2.121 2.12-2.121 2.122-2.122-2.121 2.122-2.121z" />
<path d="M6.841 14.266l2.828 2.828-2.828 2.828-2.828-2.828 2.828-2.828z" fill="#F0B90B"/>
</g>

<g id="s-p2p">
<path d="M11 7.5a3.5 3.5 0 11-7 0 3.5 3.5 0 017 0z" fill="#F0B90B"/>
<path fill-rule="evenodd" clip-rule="evenodd" d="M20 7.5a3.5 3.5 0 11-7 0 3.5 3.5 0 017 0zM3 16a3 3 0 013-3h3a3 3 0 013 3v4H3v-4zm18 4h-7v-4c0-.909-.242-1.76-.666-2.495A2.986 2.986 0 0115 13h3a3 3 0 013 3v4z"/>
</g>

<g id="s-deposite">
<path d="M13.5 9.976l-3-.026V3h3v6.976zM6.5 14h-3v7h17v-7h-3v4h-11v-4z" />
<path d="M13.812 9.979l4.176.009-5.975 5.975-5.975-5.975 4.159-.04 3.615.03z" fill="#F0B90B"/>
</g>

<g id="s-pool">
<path fill-rule="evenodd" clip-rule="evenodd" d="M16.282 5.597A13.941 13.941 0 007.5 2.5l5.94 5.94-10.5 10.5 2.12 2.12 10.5-10.5 5.94 5.94c0-3.326-1.16-6.38-3.096-8.782L20.56 5.56l-2.122-2.122-2.157 2.158z"/>
<path d="M14 17h4v4h-4v-4zM3 8.5L4.5 7 6 8.5 4.5 10 3 8.5z" fill="#F0B90B"/>
</g>

<g id="s-orders">
<path d="M9.793 7.087v-3h9.5v3h-9.5zm0 6v-3h9.5v3h-9.5zm0 6v-3h9.5v3h-9.5z"/>
<path d="M7.614 4.087h-3v3h3v-3zm0 6h-3v3h3v-3zm0 6h-3v3h3v-3z" fill="#F0B90B"/>
</g>

<g id="s-convert">
<path d="M14 3h7v7l-7-7z"/>
<path fill-rule="evenodd" clip-rule="evenodd" d="M12 6a6 6 0 100 12 6 6 0 000-12zm0 8.4l2.4-2.4L12 9.6 9.6 12l2.4 2.4z" />
<path d="M3 21h7l-7-7v7z" />
<path d="M3 21h7l-7-7v7zM14 3h7v7l-7-7z" fill="#F0B90B"/>
</g>

<g id="s-live">
<path fill-rule="evenodd" clip-rule="evenodd" d="M3 5.256v13.398h13.5V5.256H3zm4.818 7.451l1.934 1.934 1.934-1.934 1.13 1.129-3.064 3.063-3.062-3.063 1.128-1.129zm-1.934.328l-1.128-1.128 1.128-1.13 1.129 1.13-1.129 1.128zm3.866 0l-1.129-1.128 1.129-1.13 1.129 1.13-1.129 1.128zm3.866 0l-1.129-1.128 1.131-1.131 1.126 1.13-1.128 1.13zM6.69 9.972L9.752 6.91l3.063 3.062-1.128 1.13-1.935-1.935-1.934 1.934L6.69 9.972z" />
<path d="M16.5 9.527L21 7.506v9l-4.5-2.022V9.527z" fill="#F0B90B"/>
</g>

<g id="arrow-right">
<path d="M12.5 6H1V8.5H12.5L9 12.5L11 14L17.5 7L11 1L9 2.5L12.5 6Z"/>
</g>

<g id="closed">
<path fill-rule="evenodd" clip-rule="evenodd" d="M1.0163 9C1.2834 12.9975 4.50986 16 8.5163 16C12.5227 16 15.7492 12.9975 16.0163 9C16.3018 4.72709 12.7987 1 8.5163 1C4.23387 1 0.730805 4.72709 1.0163 9ZM6.40066 8.50199L4.27934 6.38067L6.40066 4.25935L8.52198 6.38067L10.6433 4.25935L12.7646 6.38067L10.6433 8.50199L12.7646 10.6233L10.6433 12.7446L8.52198 10.6233L6.40066 12.7446L4.27934 10.6233L6.40066 8.50199Z" />
<path d="M1.0163 9L1.51519 8.96667L1.0163 9ZM16.0163 9L15.5174 8.96667L15.5174 8.96667L16.0163 9ZM4.27934 6.38067L3.92579 6.02711L3.57223 6.38067L3.92579 6.73422L4.27934 6.38067ZM6.40066 8.50199L6.75422 8.85554L7.10777 8.50199L6.75422 8.14844L6.40066 8.50199ZM6.40066 4.25935L6.75421 3.90579L6.40066 3.55224L6.04711 3.90579L6.40066 4.25935ZM8.52198 6.38067L8.16843 6.73422L8.52198 7.08778L8.87554 6.73422L8.52198 6.38067ZM10.6433 4.25935L10.9969 3.9058L10.6433 3.55225L10.2897 3.9058L10.6433 4.25935ZM12.7646 6.38067L13.1182 6.73423L13.4717 6.38067L13.1182 6.02712L12.7646 6.38067ZM10.6433 8.50199L10.2898 8.14844L9.9362 8.50199L10.2898 8.85554L10.6433 8.50199ZM12.7646 10.6233L13.1182 10.9769L13.4717 10.6233L13.1182 10.2698L12.7646 10.6233ZM10.6433 12.7446L10.2897 13.0982L10.6433 13.4517L10.9969 13.0982L10.6433 12.7446ZM8.52198 10.6233L8.87554 10.2698L8.52198 9.9162L8.16843 10.2698L8.52198 10.6233ZM6.40066 12.7446L6.04711 13.0982L6.40066 13.4517L6.75421 13.0982L6.40066 12.7446ZM4.27934 10.6233L3.92579 10.2698L3.57223 10.6233L3.92579 10.9769L4.27934 10.6233ZM8.5163 15.5C4.77164 15.5 1.76464 12.7002 1.51519 8.96667L0.517413 9.03333C0.80215 13.2949 4.24807 16.5 8.5163 16.5V15.5ZM15.5174 8.96667C15.268 12.7002 12.261 15.5 8.5163 15.5V16.5C12.7845 16.5 16.2305 13.2949 16.5152 9.03333L15.5174 8.96667ZM8.5163 1.5C12.511 1.5 15.7835 4.98385 15.5174 8.96667L16.5152 9.03333C16.8201 4.47034 13.0865 0.5 8.5163 0.5V1.5ZM1.51519 8.96667C1.24908 4.98385 4.52165 1.5 8.5163 1.5V0.5C3.94609 0.5 0.212535 4.47034 0.517413 9.03333L1.51519 8.96667ZM3.92579 6.73422L6.04711 8.85554L6.75422 8.14844L4.63289 6.02711L3.92579 6.73422ZM6.04711 3.90579L3.92579 6.02711L4.63289 6.73422L6.75421 4.6129L6.04711 3.90579ZM8.87554 6.02712L6.75421 3.90579L6.04711 4.6129L8.16843 6.73422L8.87554 6.02712ZM8.87554 6.73422L10.9969 4.61291L10.2897 3.9058L8.16843 6.02712L8.87554 6.73422ZM10.2897 4.61291L12.4111 6.73423L13.1182 6.02712L10.9969 3.9058L10.2897 4.61291ZM12.4111 6.02712L10.2898 8.14844L10.9969 8.85554L13.1182 6.73423L12.4111 6.02712ZM13.1182 10.2698L10.9969 8.14844L10.2898 8.85554L12.4111 10.9769L13.1182 10.2698ZM10.9969 13.0982L13.1182 10.9769L12.4111 10.2698L10.2897 12.3911L10.9969 13.0982ZM8.16843 10.9769L10.2897 13.0982L10.9969 12.3911L8.87554 10.2698L8.16843 10.9769ZM8.16843 10.2698L6.04711 12.3911L6.75421 13.0982L8.87554 10.9769L8.16843 10.2698ZM6.75421 12.3911L4.63289 10.2698L3.92579 10.9769L6.04711 13.0982L6.75421 12.3911ZM4.63289 10.9769L6.75422 8.85554L6.04711 8.14844L3.92579 10.2698L4.63289 10.9769Z" />
</g>

<g id="arrow2-right">
<path d="M4 2L10.5 8.5L4 14.5" stroke-width="4"/>
</g>

<g id="delete">
<path d="M6.5 2H12.5M9.25 19H4.5V8H9.25M9.25 19V8M9.25 19H14V8H9.25M9.25 8H3.5V20.5H15.5V8H9.25ZM1.5 5.5H17V4.5H1.5V5.5Z" stroke-width="2"/>
</g>

<g id="refill">
<path d="M2 13.5V11H1V14.5H14V10.5H13V13.5H2Z" />
<path d="M10.5 7.5L7.5 11L4.5 7.5H6.5V1H8.5V7.5H10.5Z" />
<path d="M6.5 7.5H4.5L7.5 11L10.5 7.5H8.5M6.5 7.5V1H8.5V7.5M6.5 7.5H8.5M2 11V13.5H13V10.5H14V14.5H1V11H2Z" />
</g>

<g id="user">
<path fill-rule="evenodd" clip-rule="evenodd" d="M1 12C1 18.0737 5.82143 22.8682 11.766 22.9974C17.8411 23.1294 23 18.2071 23 12C23 5.79286 17.8411 0.870558 11.766 1.0026C5.82143 1.13179 1 5.9263 1 12ZM11.766 12.5C9.90066 12.375 8.5 10.8695 8.5 9C8.5 7.13051 9.90066 5.62501 11.766 5.5C13.7602 5.36635 15.5 7.00133 15.5 9C15.5 10.9987 13.7602 12.6336 11.766 12.5ZM7 14.5L6 15.5C6 15.5 8.95092 18.9222 11.766 19C14.581 19.0778 18.247 15.994 18 15.5C17.753 15.006 17 14.5 17 14.5H7Z"/>
</g>

<g id="user-wallet">
<path fill-rule="evenodd" clip-rule="evenodd" d="M4.5 0H21V21H4.5L0 17V4L4.5 0ZM11.5 12H17V17H11.5V12ZM6 4H17V8H6L3.5 6.5L6 4Z"/>
</g>

<g id="messages">
<path d="M20 17H0V14H1.5C1.5 14 1.02685 8.28263 2.5 5.50002C4.47644 1.76675 5.78234 0.765674 10 0.999988C13.8992 1.21661 15.6956 2.03665 17.5 5.50002C18.9548 8.29227 18.5 14 18.5 14H20V17Z" />
<path d="M15.5 19.5H4C4 19.5 6.64058 23.5 10 23.5C13 23.5 15.5 19.5 15.5 19.5Z" />
</g>

<g id="verification">
<path fill-rule="evenodd" clip-rule="evenodd" d="M1.91324 5.63074L0 7.60845L1.91324 9.58616L1.52786 12.3107L4.23817 12.7862L5.52786 15.2169L8 14.0085L10.4721 15.2169L11.7618 12.7862L14.4721 12.3107L14.0868 9.58616L16 7.60845L14.0868 5.63074L14.4721 2.90617L11.7618 2.43074L10.4721 0L8 1.20845L5.52786 0L4.23817 2.43074L1.52786 2.90617L1.91324 5.63074ZM8.75258 10.267L12.2526 6.26696L10.7474 4.94995L7.89025 8.21529L5.64018 6.34023L4.35982 7.87667L7.35982 10.3767L8.10975 11.0016L8.75258 10.267Z" fill="#0ECB81"/>
</g>

<g id="diamond">
<path d="M5 0H16L21 6L10.5 17L0 6L5 0Z" fill="#FEC400"/>
</g>

<g id="x">
<path d="M0.367966 0.400024L6.23281 8.95002L0.492184 15.6H1.76406L6.79453 9.76877L10.7945 15.6H15.6L9.47265 6.66799L14.8797 0.400024H13.6117L8.91015 5.8469L5.17343 0.400024H0.367966ZM1.88672 1.20002H4.75234L14.0812 14.8H11.2156L1.88672 1.20002Z" fill="#848E9C"/>
</g>

<g id="panel">
<rect width="9" height="9" />
<rect x="11" width="9" height="9" />
<rect y="11" width="9" height="9" />
<rect x="9.13605" y="15.5" width="9" height="9" transform="rotate(-45 9.13605 15.5)"/>
</g>

<g id="warrants">
<path fill-rule="evenodd" clip-rule="evenodd" d="M5.5 21L0 25.5V0H19V25.5L14.5 21L9.5 25.5L5.5 21ZM5 12H10V15H5V12ZM10 6H5V9H10V6ZM13 6H16V9H13V6ZM16 12H13V15H16V12Z"/>
</g>

<g id="user-notbg">
<path d="M6.49999 5.5C6.49999 8.53757 8.82136 11 12 11C15.1786 11 17.5 8.53757 17.5 5.5C17.5 2.46243 15.1786 0 12 0C8.82136 0 6.49999 2.46243 6.49999 5.5Z" />
<path d="M0.999993 21.5H22.5C22.5 21.5 23.7751 17.4658 22.5 15.5C21.312 13.6685 17.5 13 17.5 13H6.49999C6.49999 13 2.27291 13.5135 0.999993 15.5C-0.264175 17.4729 0.999993 21.5 0.999993 21.5Z" />
</g>

<g id="user-plus">
<path d="M2.47208 5.00649C2.47197 2.24501 4.71442 -0.138842 7.47208 0.00629909C10.0955 0.144374 11.9722 2.37945 11.9721 5.00649C11.972 7.63342 10.0954 9.36816 7.47208 9.50623C4.71453 9.65136 2.47219 7.76786 2.47208 5.00649Z"/>
<path d="M14.4721 20.0062H0.47208C0.47208 20.0062 -0.5901 16.3731 0.47208 14.5062C1.22625 13.1807 2.47208 12.0062 2.47208 12.0062H11.9721C11.9721 12.0062 13.7179 13.1807 14.4721 14.5062C15.5343 16.3731 14.4721 20.0062 14.4721 20.0062Z"/>
<path d="M18.4721 3.00623V7.00623H14.4721V11.0062H18.4721V15.0062H22.4721V11.5062H26.4721V7.00623H22.4721V3.00623H18.4721Z"/>
</g>

<g id="bonus">
<path fill-rule="evenodd" clip-rule="evenodd" d="M0 0V5.5C0 5.5 2 7.32029 2 9C2 11 0 12.5 0 12.5V18H22V12.5C22 12.5 19 11 19 9C19 7.1579 22 5.5 22 5.5V0H0ZM15 4H13V14H15V4Z"/>
</g>

<g id="settings">
<path d="M8.41406 0.0218747C8.27031 0.0671872 8.16719 0.157812 8.10313 0.295312C8.07031 0.365625 8.07031 0.382812 8.06563 1.36875L8.06094 2.36875L7.90156 2.41406C7.29531 2.58281 6.59688 2.87969 6.07969 3.1875L5.94688 3.26719L5.22031 2.54062C4.53438 1.85781 4.4875 1.81406 4.40625 1.7875C4.27813 1.74531 4.13594 1.75156 4.02188 1.80312C3.93906 1.84062 3.81875 1.95625 2.88125 2.89531C1.71563 4.0625 1.75938 4.01094 1.75781 4.21875C1.75781 4.44062 1.73125 4.40625 2.52969 5.20781L3.24219 5.92344L3.20469 5.98906C2.99844 6.35781 2.825 6.71875 2.69063 7.05469C2.59844 7.28594 2.45 7.73437 2.39531 7.94531L2.36719 8.05469L1.36719 8.0625L0.367188 8.07031L0.278125 8.11406C0.176563 8.16406 0.0890625 8.25312 0.040625 8.35781L0.0078125 8.42969V10V11.5703L0.0515625 11.6594C0.101563 11.7609 0.190625 11.8484 0.295313 11.8969C0.365625 11.9297 0.382813 11.9297 1.375 11.9344L2.38281 11.9391L2.45 12.175C2.6125 12.7453 2.91875 13.4625 3.19531 13.9125L3.26406 14.0234L3.175 14.1172C3.12656 14.1687 2.89531 14.4047 2.66406 14.6406C1.71094 15.6078 1.75781 15.55 1.75781 15.7734C1.75938 15.8719 1.76719 15.9141 1.79531 15.9766C1.825 16.0391 2.04531 16.2687 2.88125 17.1047C3.6 17.8234 3.95156 18.1641 3.99688 18.1859C4.1375 18.2562 4.30469 18.2594 4.45 18.1937C4.48594 18.1766 4.775 17.9 5.22656 17.45L5.94688 16.7344L6.125 16.8359C6.6375 17.1281 7.23594 17.3797 7.80781 17.5437L8.06094 17.6172L8.06563 18.625C8.07031 19.6172 8.07031 19.6344 8.10313 19.7047C8.15156 19.8094 8.23906 19.8984 8.34063 19.9484L8.42969 19.9922H10H11.5703L11.6594 19.9484C11.7609 19.8984 11.8484 19.8094 11.8969 19.7047C11.9297 19.6344 11.9297 19.6172 11.9344 18.6312L11.9391 17.6281L12.0359 17.6016C12.6734 17.4281 13.3141 17.1609 13.8891 16.8312L14.0672 16.7297L14.7797 17.4484C15.5828 18.2594 15.5594 18.2406 15.7734 18.2406C15.8719 18.2406 15.9156 18.2328 15.9766 18.2047C16.0906 18.1516 18.1484 16.0922 18.2047 15.9766C18.2578 15.8656 18.2578 15.6641 18.2047 15.5625C18.1813 15.5156 17.9328 15.2547 17.4516 14.7719L16.7328 14.0531L16.8203 13.9047C16.9531 13.6828 17.1875 13.1953 17.3016 12.9062C17.4047 12.6469 17.5328 12.2594 17.5859 12.0516L17.6156 11.9391L18.6234 11.9344C19.6172 11.9297 19.6344 11.9297 19.7047 11.8969C19.8094 11.8484 19.8984 11.7609 19.9484 11.6594L19.9922 11.5703V10V8.42969L19.9484 8.34062C19.8984 8.23906 19.8094 8.15156 19.7047 8.10312C19.6344 8.07031 19.6172 8.07031 18.6313 8.06562L17.6281 8.06094L17.6109 7.99219C17.4688 7.42969 17.1734 6.7125 16.8453 6.14062L16.7344 5.94687L17.4594 5.21875C18.2719 4.40469 18.2438 4.44062 18.2406 4.21875C18.2391 4.00937 18.2766 4.05312 17.1125 2.8875C16.1828 1.95781 16.0609 1.84062 15.9781 1.80312C15.8641 1.75156 15.7219 1.74531 15.5938 1.7875C15.5125 1.81406 15.4656 1.85781 14.7813 2.54062L14.0531 3.26562L13.875 3.1625C13.3656 2.87031 12.7172 2.6 12.1297 2.43594L11.9391 2.38281L11.9344 1.375C11.9297 0.379687 11.9297 0.365625 11.8953 0.29375C11.8484 0.190625 11.7469 0.0874997 11.6516 0.0453122L11.5703 0.0078122L10.0234 0.0046872C8.80625 0.0031247 8.4625 0.0062497 8.41406 0.0218747ZM10.2266 7.09531C11.1328 7.17187 11.925 7.6375 12.4297 8.39062C12.5406 8.55625 12.7016 8.88281 12.7656 9.075C13.1094 10.0953 12.8516 11.2328 12.1016 12.0141C11.2313 12.9203 9.89219 13.1703 8.76563 12.6391C8.15313 12.3484 7.67813 11.8812 7.38281 11.2734C7.21094 10.9234 7.12813 10.6141 7.09375 10.2109C7.07188 9.95781 7.09219 9.67187 7.14844 9.39844C7.40781 8.15156 8.475 7.20625 9.75 7.09531C9.96406 7.07656 10.0172 7.07656 10.2266 7.09531Z" />
</g>

<g id="exit">
<path d="M14.5 3.5L24 12.5L14.5 20V14.5H6.5V9.5H14.5V3.5Z"/>
<path d="M11 24V19H4V5H11V0H0V24H11Z" />
</g>

<g id="w-spot">
<path d="M22.5 7.50433C22.5 3.22189 19.7803 0.137979 15.5 0.00427246C11.6057 -0.117376 9.13207 2.38068 8.60553 6.00427C8.60553 6.00427 12.4521 6.86597 14.5 8.50427C17 10.5043 16.5 14.5043 16.5 14.5043C19.5 14.5043 22.5 11.2624 22.5 7.50433Z" />
<path d="M0.5 8.50427V0.504272H8.60553L0.5 8.50427Z" />
<path d="M22.5 13.5043V21.5043H14L22.5 13.5043Z" />
<path fill-rule="evenodd" clip-rule="evenodd" d="M7.5163 22.0043C3.50986 22.0089 0.283396 19.0019 0.0163002 15.0043C-0.269195 10.7314 3.23387 6.99973 7.5163 7.00433C11.6584 7.00878 15.0163 10.3622 15.0163 14.5043C15.0163 18.6465 11.6584 21.9996 7.5163 22.0043ZM4.5 14.5043L7.5163 11.5043L10.5 14.5043L7.5163 17.5043L4.5 14.5043Z" />
</g>

<g id="w-marg">
<path d="M17 7.5L3.5 21.5L1.5 19.5L15 5.5L10.5 1H22V12.5L17 7.5Z" />
<path fill-rule="evenodd" clip-rule="evenodd" d="M6 1C3.23858 1 1 3.23858 1 6C1 8.76142 3.23858 11 6 11C8.76142 11 11 8.76142 11 6C11 3.23858 8.76142 1 6 1ZM4 6L6 4L8 6L6 8L4 6Z" />
<path fill-rule="evenodd" clip-rule="evenodd" d="M17 12C14.2386 12 12 14.2386 12 17C12 19.7614 14.2386 22 17 22C19.7614 22 22 19.7614 22 17C22 14.2386 19.7614 12 17 12ZM15 17L17 15L19 17L17 19L15 17Z" />
</g>

<g id="w-futur">
<path fill-rule="evenodd" clip-rule="evenodd" d="M6 7.5V0H21.5V18.5L18 22.5H4L1 19.5V7.5H6ZM12 4.5H18V10L16 8.16667L13 11.5L11 9.5L14 6.33333L12 4.5ZM6 18V11.5H4V18H6ZM18 18V15H10V18H18Z" />
</g>

<g id="w-option">
<path fill-rule="evenodd" clip-rule="evenodd" d="M6 0V7.5H1V19.5L4 22.5H18L21.5 18.5V0H6ZM17 16.5H10V6.5H17V8.5H13V10.5H17V12.5H13V14.5H17V16.5ZM6 11.5H4V18H6V11.5Z" />
</g>

<g id="w-bot">
<path fill-rule="evenodd" clip-rule="evenodd" d="M11 4V5H3V11H0V16H3V22H23V16H26V11H23V5H15V4H17V1H9V4H11ZM7.5 11C7.5 10.1716 8.17157 9.5 9 9.5C9.82843 9.5 10.5 10.1716 10.5 11C10.5 11.8284 9.82843 12.5 9 12.5C8.17157 12.5 7.5 11.8284 7.5 11ZM17.5 9.5C16.6716 9.5 16 10.1716 16 11C16 11.8284 16.6716 12.5 17.5 12.5C18.3284 12.5 19 11.8284 19 11C19 10.1716 18.3284 9.5 17.5 9.5ZM17 15H9V17H17V15Z" />
</g>

<g id="w-earn">
<path fill-rule="evenodd" clip-rule="evenodd" d="M6 7C6 2.99356 8.99356 0 13 0C17.0064 0 19.8912 2.99356 19.8912 7C19.8912 7.58405 19.5359 8.14657 19.1982 8.68144C19.1304 8.78876 19.0634 8.89496 19 9H24V10.1538L20.5 12.5C20.5 12.5 21.6125 13.6039 22 14.5C22.31 15.2169 22.5 16 22.5 16H25V20L19.8912 24.5L22 26.5L19.8912 28.5L17 26H8.5L6 28.5L4 26.5L6 24.5C6 24.5 5.0994 23.7707 4.5 23C3.74182 22.0252 3 20 3 20H0V17H2C2 17 2.72949 13.9437 4 12.5C5.08712 11.2647 7.5 10.1538 7.5 10.1538C6.61837 9.21731 6 8.15041 6 7ZM13 3C10.7909 3 9 4.79086 9 7C9 9.20914 10.7909 11 13 11C15.2091 11 17 9.20914 17 7C17 4.79086 15.2091 3 13 3ZM11 7L13 5L15 7L13 9L11 7ZM15.5 16.5V14.5H10V16.5H15.5Z" />
</g>

<g id="w-add">
<path fill-rule="evenodd" clip-rule="evenodd" d="M11 0.00275925C4.7868 0.14083 7.62058e-08 5.28802 0 11.5028C-7.62058e-08 17.7175 4.7868 22.8647 11 23.0028C17.3497 23.1439 22.5 17.854 22.5 11.5028C22.5 5.15148 17.3497 -0.138345 11 0.00275925ZM6.5 11.5028L11 16L15.5 11.5028L11 7L6.5 11.5028Z" />
</g>

<g id="w-history">
<path d="M14 6.52525H10.5L10.5 13L15 17.0253L17.5 14.5L14 11.5V6.52525Z" />
<path d="M12.5 4.5C10.3182 4.57645 7.5 6.52525 7.5 6.52525L4 4.02525C4 4.02525 6.00385 2.28875 7.5 1.52525C9.31582 0.59861 10.466 0.161495 12.5 0.0252483C19.2518 -0.427008 24.8817 5.25939 25 12.0252C25.1024 17.8822 21.6955 22.6558 16 24.0252C13.9116 24.5274 10.5 24.0252 10.5 24.0252V19.5252C10.5 19.5252 11.7236 19.6107 12.5 19.5252C15.0373 19.2459 16.9006 18.5804 18.5 16.5C19.9721 14.5852 20.4019 12.8816 20 10.5C19.6655 8.51768 19.0012 7.33716 17.5 6C15.9323 4.60361 14.5981 4.42648 12.5 4.5Z" />
<path d="M4.85227 22.4798V7.93436H5.78409V22.4798H4.85227ZM7.32386 12.7355C7.27841 12.2772 7.08333 11.9211 6.73864 11.6673C6.39394 11.4135 5.92614 11.2866 5.33523 11.2866C4.93371 11.2866 4.5947 11.3434 4.31818 11.4571C4.04167 11.5669 3.82955 11.7203 3.68182 11.9173C3.53788 12.1143 3.46591 12.3378 3.46591 12.5878C3.45833 12.7961 3.50189 12.9779 3.59659 13.1332C3.69508 13.2885 3.82955 13.423 4 13.5366C4.17045 13.6465 4.36742 13.7431 4.59091 13.8264C4.81439 13.906 5.05303 13.9741 5.30682 14.031L6.35227 14.281C6.85985 14.3946 7.32576 14.5461 7.75 14.7355C8.17424 14.9249 8.54167 15.1578 8.85227 15.4344C9.16288 15.7109 9.40341 16.0366 9.57386 16.4116C9.74811 16.7866 9.83712 17.2166 9.84091 17.7014C9.83712 18.4135 9.6553 19.031 9.29545 19.5537C8.93939 20.0726 8.42424 20.476 7.75 20.7639C7.07955 21.048 6.27083 21.19 5.32386 21.19C4.38447 21.19 3.56629 21.0461 2.86932 20.7582C2.17614 20.4703 1.63447 20.0442 1.24432 19.4798C0.857955 18.9116 0.655303 18.209 0.636364 17.3719H3.01705C3.04356 17.762 3.1553 18.0878 3.35227 18.3491C3.55303 18.6067 3.82008 18.8018 4.15341 18.9344C4.49053 19.0631 4.87121 19.1275 5.29545 19.1275C5.71212 19.1275 6.07386 19.0669 6.38068 18.9457C6.69129 18.8245 6.93182 18.656 7.10227 18.44C7.27273 18.2241 7.35795 17.976 7.35795 17.6957C7.35795 17.4344 7.2803 17.2147 7.125 17.0366C6.97348 16.8586 6.75 16.7071 6.45455 16.5821C6.16288 16.4571 5.80492 16.3435 5.38068 16.2412L4.11364 15.923C3.13258 15.6844 2.35795 15.3113 1.78977 14.8037C1.22159 14.2961 0.939394 13.6124 0.943182 12.7525C0.939394 12.048 1.12689 11.4325 1.50568 10.906C1.88826 10.3794 2.41288 9.96845 3.07955 9.673C3.74621 9.37754 4.50379 9.22981 5.35227 9.22981C6.21591 9.22981 6.9697 9.37754 7.61364 9.673C8.26136 9.96845 8.76515 10.3794 9.125 10.906C9.48485 11.4325 9.67045 12.0423 9.68182 12.7355H7.32386Z" />
</g>

<g id="w-extract">
<path d="M0.00253913 12.0029C-0.138376 18.9051 5.60495 24.7905 12.5026 24.5031C15.6336 24.3726 18.4031 23.0556 20.4396 21.0031L12.5026 12.503L12.5026 0.00303579C5.46117 -0.146367 0.140663 5.23748 0.00253913 12.0029Z" />
<path d="M21.7044 19.5031C23.2059 17.3994 24.0594 14.7932 24.0025 12.0029C23.9286 8.37533 22.4542 5.18489 19.9885 3.00305L13.5025 11.5031L21.7044 19.5031Z" />
</g>

<g id="w-check">
<path fill-rule="evenodd" clip-rule="evenodd" d="M13.5 0H0V23.5H18V6L13.5 0ZM5 15.5V17.5H13V15.5H5ZM5 11.5V9.5H13V11.5H5Z" />
</g>

<g id="m-p2p">
<path d="M2 3C2 4.65685 3.34315 6 5 6C6.65685 6 8 4.65685 8 3C8 1.34315 6.65685 0 5 0C3.34315 0 2 1.34315 2 3Z" />
<path d="M9.5 11H0C0 11 0.5 7 2.5 7H7C8.5 7 9.5 11 9.5 11Z" />
<path d="M11.5 9.5C11.5 7.84315 12.8431 6.5 14.5 6.5C16.1569 6.5 17.5 7.84315 17.5 9.5C17.5 11.1569 16.1569 12.5 14.5 12.5C12.8431 12.5 11.5 11.1569 11.5 9.5Z" />
<path d="M19 17.5H10C10 17.5 10.2535 14 12 14H17C18.7465 14 19 17.5 19 17.5Z" />
<path d="M19 0.5V5.5H16V3.5L12 3V0.5H19Z" />
<path d="M7 17.5V14.5H3V12.5H0V17.5H7Z" />
</g>

<g id="m-notice">
<path d="M18 0H17L13.5 4H1V13H4V19H10V13H13.5L17 17H18V0Z" />
</g>

<g id="m-system">
<path d="M0 16.5V7L9.5 13L19 7V16.5H0Z" />
<path d="M19 5L9.5 10.5L0 5V1H19V5Z" />
</g>

<g id="m-promotions">
<path d="M8.5 9.5V6H10.5V9.5H18V5.5H14.5L16.5 4L14.5 1L11.5 4V0H8V4L4.5 1L2.5 4L4.5 5.5H1V9.5H8.5Z" />
<path d="M8.5 18.5V11.5H1V18.5H8.5Z" />
<path d="M18 11.5H10.5V18.5H18V11.5Z" />
</g>

<g id="discord">
<path fill-rule="evenodd" clip-rule="evenodd" d="M12 24C18.6274 24 24 18.6274 24 12C24 5.37258 18.6274 0 12 0C5.37258 0 0 5.37258 0 12C0 18.6274 5.37258 24 12 24ZM13.5184 6.46226C14.5079 6.63312 15.4542 6.93146 16.3367 7.33639C16.3444 7.33969 16.3509 7.34519 16.3547 7.35287C17.9184 9.65278 18.6906 12.2472 18.4019 15.2338C18.4008 15.2465 18.3943 15.258 18.3839 15.2657C17.1996 16.1354 16.0524 16.6635 14.921 17.0134C14.903 17.0189 14.8834 17.0123 14.8724 16.997C14.611 16.6332 14.3736 16.2497 14.1657 15.847C14.1537 15.8234 14.1646 15.7948 14.1891 15.7855C14.5663 15.6432 14.9248 15.4728 15.2698 15.2712C15.297 15.2553 15.2987 15.2163 15.2736 15.1976C15.2005 15.1432 15.1279 15.086 15.0585 15.0289C15.0455 15.0185 15.028 15.0163 15.0132 15.0234C12.774 16.058 10.3207 16.058 8.05473 15.0234C8.03999 15.0168 8.02251 15.019 8.00997 15.0295C7.94067 15.0866 7.86806 15.1432 7.79548 15.1976C7.77038 15.2163 7.77256 15.2553 7.79984 15.2712C8.14477 15.469 8.50335 15.6432 8.87992 15.786C8.90447 15.7954 8.91594 15.8234 8.90393 15.847C8.70037 16.2503 8.46296 16.6338 8.19662 16.9975C8.18516 17.0123 8.16607 17.0189 8.14805 17.0134C7.02214 16.6635 5.87493 16.1354 4.69061 15.2657C4.68079 15.258 4.6737 15.2459 4.6726 15.2333C4.43138 12.6499 4.92311 10.0341 6.71815 7.35232C6.7225 7.34519 6.72905 7.33969 6.73669 7.33639C7.61975 6.93091 8.5661 6.63258 9.55503 6.46226C9.57305 6.45951 9.59105 6.46775 9.60033 6.48368C9.72259 6.70015 9.8623 6.97762 9.95672 7.20452C10.9991 7.04519 12.0579 7.04519 13.1222 7.20452C13.2166 6.98255 13.3514 6.70015 13.4731 6.48368C13.4824 6.4672 13.5004 6.45896 13.5184 6.46226ZM7.99796 12.2647C7.99796 13.0339 8.5601 13.6603 9.24232 13.6603C9.93543 13.6603 10.4867 13.0339 10.4867 12.2647C10.4976 11.501 9.94089 10.8692 9.24232 10.8692C8.54919 10.8692 7.99796 11.4955 7.99796 12.2647ZM12.5988 12.2647C12.5988 13.0339 13.1609 13.6603 13.8431 13.6603C14.5417 13.6603 15.0875 13.0339 15.0875 12.2647C15.0984 11.501 14.5417 10.8692 13.8431 10.8692C13.15 10.8692 12.5988 11.4955 12.5988 12.2647Z"/>
</g>

<g id="telegram">
<path fill-rule="evenodd" clip-rule="evenodd" d="M24 12C24 18.6274 18.6274 24 12 24C5.37258 24 0 18.6274 0 12C0 5.37258 5.37258 0 12 0C18.6274 0 24 5.37258 24 12ZM12.43 8.85893C11.2628 9.3444 8.93014 10.3492 5.43189 11.8733C4.86383 12.0992 4.56626 12.3202 4.53917 12.5363C4.49339 12.9015 4.95071 13.0453 5.57348 13.2411C5.65819 13.2678 5.74596 13.2954 5.83594 13.3246C6.44864 13.5238 7.27283 13.7568 7.70129 13.766C8.08994 13.7744 8.52373 13.6142 9.00264 13.2853C12.2712 11.079 13.9584 9.96381 14.0643 9.93977C14.139 9.92281 14.2426 9.90148 14.3128 9.96385C14.3829 10.0262 14.376 10.1443 14.3686 10.176C14.3233 10.3691 12.5281 12.0381 11.5991 12.9018C11.3095 13.171 11.1041 13.362 11.0621 13.4056C10.968 13.5033 10.8721 13.5958 10.78 13.6846C10.2108 14.2333 9.78391 14.6448 10.8036 15.3168C11.2936 15.6397 11.6857 15.9067 12.0769 16.1731C12.5042 16.4641 12.9303 16.7543 13.4816 17.1157C13.6221 17.2077 13.7562 17.3034 13.8869 17.3965C14.3841 17.751 14.8307 18.0694 15.3826 18.0186C15.7032 17.9891 16.0345 17.6876 16.2027 16.7884C16.6002 14.6631 17.3816 10.0585 17.5622 8.16097C17.578 7.99473 17.5581 7.78197 17.5422 7.68857C17.5262 7.59518 17.4928 7.46211 17.3714 7.3636C17.2276 7.24694 17.0056 7.22234 16.9064 7.22408C16.455 7.23203 15.7626 7.47282 12.43 8.85893Z"/>
</g>

<g id="tiktok">
<path d="M17.0725 0H13.0278V16.3478C13.0278 18.2957 11.4722 19.8957 9.53626 19.8957C7.60034 19.8957 6.04469 18.2957 6.04469 16.3478C6.04469 14.4348 7.56577 12.8695 9.43257 12.8V8.69567C5.31872 8.7652 2 12.1391 2 16.3478C2 20.5913 5.38786 24 9.57085 24C13.7538 24 17.1416 20.5565 17.1416 16.3478V7.9652C18.6627 9.07827 20.5295 9.73913 22.5 9.77393V5.66957C19.4579 5.56522 17.0725 3.06087 17.0725 0Z" />
</g>

<g id="facebook">
<path d="M24 12C24 5.37258 18.6274 0 12 0C5.37258 0 0 5.37258 0 12C0 17.9895 4.3882 22.954 10.125 23.8542V15.4688H7.07812V12H10.125V9.35625C10.125 6.34875 11.9166 4.6875 14.6576 4.6875C15.9701 4.6875 17.3438 4.92188 17.3438 4.92188V7.875H15.8306C14.34 7.875 13.875 8.80008 13.875 9.75V12H17.2031L16.6711 15.4688H13.875V23.8542C19.6118 22.954 24 17.9895 24 12Z" />
</g>

<g id="reddit">
<path fill-rule="evenodd" clip-rule="evenodd" d="M24 12C24 18.6274 18.6274 24 12 24C5.37258 24 0 18.6274 0 12C0 5.37258 5.37258 0 12 0C18.6274 0 24 5.37258 24 12ZM18.2456 10.2456C19.214 10.2456 20 11.0316 20 12C20 12.7158 19.5649 13.3333 18.9895 13.614C19.0175 13.7824 19.0316 13.9509 19.0316 14.1333C19.0316 16.828 15.9018 19.0035 12.0281 19.0035C8.15439 19.0035 5.02457 16.828 5.02457 14.1333C5.02457 13.9509 5.0386 13.7684 5.06667 13.6C4.44913 13.3193 4.02808 12.7158 4.02808 12C4.02808 11.0316 4.81404 10.2456 5.78246 10.2456C6.24562 10.2456 6.68071 10.4421 6.98948 10.7368C8.1965 9.85261 9.86667 9.30524 11.7333 9.2491L12.6176 5.06664C12.6456 4.98243 12.6877 4.91226 12.7579 4.87015C12.8281 4.82805 12.9123 4.81401 12.9965 4.82805L15.9018 5.44559C16.0983 5.02454 16.5193 4.74384 17.0105 4.74384C17.6983 4.74384 18.2597 5.30524 18.2597 5.99296C18.2597 6.68068 17.6983 7.24208 17.0105 7.24208C16.3368 7.24208 15.7895 6.70875 15.7614 6.0491L13.1649 5.50173L12.3649 9.2491C14.1895 9.31927 15.8456 9.88068 17.0386 10.7368C17.3474 10.428 17.7684 10.2456 18.2456 10.2456ZM9.24913 12C8.56141 12 8.00001 12.5614 8.00001 13.2491C8.00001 13.9368 8.56141 14.4982 9.24913 14.4982C9.93685 14.4982 10.4983 13.9368 10.4983 13.2491C10.4983 12.5614 9.93685 12 9.24913 12ZM12.014 17.4596C12.4912 17.4596 14.1193 17.4035 14.9754 16.5473C15.1018 16.421 15.1018 16.2245 15.0035 16.0842C14.8772 15.9579 14.6667 15.9579 14.5404 16.0842C13.993 16.6175 12.8561 16.814 12.0281 16.814C11.2 16.814 10.0491 16.6175 9.5158 16.0842C9.38948 15.9579 9.17895 15.9579 9.05264 16.0842C8.92632 16.2105 8.92632 16.421 9.05264 16.5473C9.89474 17.3895 11.5368 17.4596 12.014 17.4596ZM13.5018 13.2491C13.5018 13.9368 14.0632 14.4982 14.7509 14.4982C15.4386 14.4982 16 13.9368 16 13.2491C16 12.5614 15.4386 12 14.7509 12C14.0632 12 13.5018 12.5614 13.5018 13.2491Z" />
</g>

<g id="instagram">
<path d="M12 2.16094C15.2063 2.16094 15.5859 2.175 16.8469 2.23125C18.0188 2.28281 18.6516 2.47969 19.0734 2.64375C19.6313 2.85938 20.0344 3.12188 20.4516 3.53906C20.8734 3.96094 21.1313 4.35938 21.3469 4.91719C21.5109 5.33906 21.7078 5.97656 21.7594 7.14375C21.8156 8.40937 21.8297 8.78906 21.8297 11.9906C21.8297 15.1969 21.8156 15.5766 21.7594 16.8375C21.7078 18.0094 21.5109 18.6422 21.3469 19.0641C21.1313 19.6219 20.8687 20.025 20.4516 20.4422C20.0297 20.8641 19.6313 21.1219 19.0734 21.3375C18.6516 21.5016 18.0141 21.6984 16.8469 21.75C15.5813 21.8062 15.2016 21.8203 12 21.8203C8.79375 21.8203 8.41406 21.8062 7.15313 21.75C5.98125 21.6984 5.34844 21.5016 4.92656 21.3375C4.36875 21.1219 3.96563 20.8594 3.54844 20.4422C3.12656 20.0203 2.86875 19.6219 2.65313 19.0641C2.48906 18.6422 2.29219 18.0047 2.24063 16.8375C2.18438 15.5719 2.17031 15.1922 2.17031 11.9906C2.17031 8.78438 2.18438 8.40469 2.24063 7.14375C2.29219 5.97187 2.48906 5.33906 2.65313 4.91719C2.86875 4.35938 3.13125 3.95625 3.54844 3.53906C3.97031 3.11719 4.36875 2.85938 4.92656 2.64375C5.34844 2.47969 5.98594 2.28281 7.15313 2.23125C8.41406 2.175 8.79375 2.16094 12 2.16094ZM12 0C8.74219 0 8.33438 0.0140625 7.05469 0.0703125C5.77969 0.126563 4.90313 0.332812 4.14375 0.628125C3.35156 0.9375 2.68125 1.34531 2.01563 2.01562C1.34531 2.68125 0.9375 3.35156 0.628125 4.13906C0.332812 4.90313 0.126563 5.775 0.0703125 7.05C0.0140625 8.33437 0 8.74219 0 12C0 15.2578 0.0140625 15.6656 0.0703125 16.9453C0.126563 18.2203 0.332812 19.0969 0.628125 19.8563C0.9375 20.6484 1.34531 21.3188 2.01563 21.9844C2.68125 22.65 3.35156 23.0625 4.13906 23.3672C4.90313 23.6625 5.775 23.8687 7.05 23.925C8.32969 23.9812 8.7375 23.9953 11.9953 23.9953C15.2531 23.9953 15.6609 23.9812 16.9406 23.925C18.2156 23.8687 19.0922 23.6625 19.8516 23.3672C20.6391 23.0625 21.3094 22.65 21.975 21.9844C22.6406 21.3188 23.0531 20.6484 23.3578 19.8609C23.6531 19.0969 23.8594 18.225 23.9156 16.95C23.9719 15.6703 23.9859 15.2625 23.9859 12.0047C23.9859 8.74688 23.9719 8.33906 23.9156 7.05938C23.8594 5.78438 23.6531 4.90781 23.3578 4.14844C23.0625 3.35156 22.6547 2.68125 21.9844 2.01562C21.3188 1.35 20.6484 0.9375 19.8609 0.632812C19.0969 0.3375 18.225 0.13125 16.95 0.075C15.6656 0.0140625 15.2578 0 12 0Z" />
<path d="M12 5.83594C8.59688 5.83594 5.83594 8.59688 5.83594 12C5.83594 15.4031 8.59688 18.1641 12 18.1641C15.4031 18.1641 18.1641 15.4031 18.1641 12C18.1641 8.59688 15.4031 5.83594 12 5.83594ZM12 15.9984C9.79219 15.9984 8.00156 14.2078 8.00156 12C8.00156 9.79219 9.79219 8.00156 12 8.00156C14.2078 8.00156 15.9984 9.79219 15.9984 12C15.9984 14.2078 14.2078 15.9984 12 15.9984Z" />
<path d="M19.8469 5.59214C19.8469 6.38902 19.2 7.0312 18.4078 7.0312C17.6109 7.0312 16.9688 6.38433 16.9688 5.59214C16.9688 4.79526 17.6156 4.15308 18.4078 4.15308C19.2 4.15308 19.8469 4.79995 19.8469 5.59214Z" />
</g>

<g id="coinMarket">
<path d="M20.8623 14.5538C20.4758 14.8197 19.973 14.853 19.5532 14.641C19.0712 14.3668 18.8094 13.7268 18.8094 12.8582V10.186C18.8094 8.90182 18.3023 7.99169 17.4504 7.74234C16.0166 7.3226 14.9444 9.08052 14.533 9.7413L11.9938 13.8514V8.83532C11.9647 7.68 11.5906 6.98597 10.8758 6.77818C10.4062 6.64104 9.69974 6.69507 9.01403 7.74234L3.33714 16.8561C2.58078 15.414 2.18597 13.8057 2.19429 12.1766C2.19429 6.6826 6.58286 2.21507 11.9938 2.21507C17.4047 2.21507 21.8057 6.6826 21.8057 12.1766V12.2057C21.8057 12.2057 21.8057 12.2265 21.8057 12.2348C21.8597 13.2945 21.5148 14.1423 20.8623 14.5538ZM24 12.1766V12.1226C23.9543 5.43169 18.5849 0 11.9938 0C5.4026 0 0 5.46078 0 12.1766C0 18.8925 5.37766 24.3532 11.9938 24.3532C15.0275 24.3532 17.9449 23.1896 20.1475 21.1034C20.5922 20.6836 20.6171 19.9855 20.2057 19.5366C19.8068 19.0961 19.1294 19.0629 18.6847 19.4618L18.6805 19.466C14.7948 23.1522 8.65662 22.9901 4.97039 19.1044C4.87896 19.0088 4.79169 18.9132 4.70442 18.8135L9.81195 10.5974V14.3875C9.81195 16.2078 10.5184 16.7979 11.1086 16.9725C11.6987 17.147 12.6088 17.0265 13.5564 15.4847L16.3823 10.9132C16.4696 10.7678 16.5527 10.639 16.6317 10.5309V12.854C16.6317 14.5579 17.3132 15.9169 18.5143 16.5901C19.6239 17.1886 20.9704 17.1345 22.0301 16.4488C23.3475 15.5927 24.0665 14.0426 23.9917 12.1766H24Z" />
</g>

<g id="youtube">
<path d="M23.7609 7.20005C23.7609 7.20005 23.5266 5.54536 22.8047 4.8188C21.8906 3.86255 20.8688 3.85786 20.4 3.80161C17.0438 3.55786 12.0047 3.55786 12.0047 3.55786H11.9953C11.9953 3.55786 6.95625 3.55786 3.6 3.80161C3.13125 3.85786 2.10938 3.86255 1.19531 4.8188C0.473438 5.54536 0.24375 7.20005 0.24375 7.20005C0.24375 7.20005 0 9.14536 0 11.086V12.9047C0 14.8454 0.239062 16.7907 0.239062 16.7907C0.239062 16.7907 0.473437 18.4454 1.19062 19.1719C2.10469 20.1282 3.30469 20.0954 3.83906 20.1985C5.76094 20.3813 12 20.4375 12 20.4375C12 20.4375 17.0438 20.4282 20.4 20.1891C20.8688 20.1329 21.8906 20.1282 22.8047 19.1719C23.5266 18.4454 23.7609 16.7907 23.7609 16.7907C23.7609 16.7907 24 14.85 24 12.9047V11.086C24 9.14536 23.7609 7.20005 23.7609 7.20005ZM9.52031 15.1125V8.36724L16.0031 11.7516L9.52031 15.1125Z" />
</g>

<g id="other">
<path d="M6 9H0V15H6V9Z" />
<path d="M15 9H9V15H15V9Z" />
<path d="M24 9H18V15H24V9Z" />
</g>

<g id="currency">
<path fill-rule="evenodd" clip-rule="evenodd" d="M12 24C18.6274 24 24 18.6274 24 12C24 5.37256 18.6274 0 12 0C5.37259 0 0 5.37256 0 12C0 18.6274 5.37259 24 12 24ZM11.8523 18.1521V19.4546H12.7841V18.1531C13.5356 18.1138 14.1909 17.9756 14.75 17.7385C15.4242 17.4507 15.9394 17.0474 16.2955 16.5283C16.6553 16.0056 16.8371 15.3882 16.8409 14.676C16.8371 14.1914 16.7481 13.7615 16.5739 13.3865C16.4034 13.0115 16.1629 12.6855 15.8523 12.4092C15.5417 12.1326 15.1742 11.8997 14.75 11.7102C14.3258 11.5208 13.8598 11.3694 13.3523 11.2556L12.7841 11.1196V8.28882C13.1682 8.33862 13.4864 8.4563 13.7386 8.64209C14.0833 8.89575 14.2784 9.25195 14.3239 9.71021H16.6818C16.6705 9.01709 16.4848 8.40723 16.125 7.88062C15.7652 7.35425 15.2614 6.94312 14.6136 6.64771C14.0794 6.40259 13.4695 6.25928 12.7841 6.21753V4.90918H11.8523V6.22241C11.2033 6.26978 10.6124 6.41162 10.0795 6.64771C9.41287 6.94312 8.88826 7.35425 8.50568 7.88062C8.12689 8.40723 7.93939 9.02271 7.94318 9.72729C7.93939 10.5872 8.22159 11.2708 8.78978 11.7783C9.35796 12.2859 10.1326 12.6592 11.1136 12.8977L11.8523 13.0833V16.0769C11.6016 16.0471 11.3686 15.9912 11.1534 15.9092C10.8201 15.7766 10.553 15.5815 10.3523 15.324C10.1553 15.0625 10.0436 14.7368 10.017 14.3467H7.63637C7.6553 15.1836 7.85796 15.8865 8.24432 16.4546C8.63448 17.019 9.17613 17.4451 9.86932 17.7329C10.447 17.9714 11.108 18.1113 11.8523 18.1521ZM12.7841 16.0713C13.0018 16.042 13.2007 15.9917 13.3807 15.9204C13.6913 15.7993 13.9318 15.6306 14.1023 15.4148C14.2727 15.199 14.358 14.9507 14.358 14.6704C14.358 14.4092 14.2803 14.1895 14.125 14.0115C13.9735 13.8333 13.75 13.6819 13.4545 13.5569C13.2604 13.4736 13.0369 13.3955 12.7841 13.3223V16.0713ZM11.8523 10.887V8.29297C11.6539 8.3208 11.4759 8.36694 11.3182 8.43188C11.0417 8.54175 10.8295 8.69507 10.6818 8.89209C10.5379 9.08911 10.4659 9.3125 10.4659 9.5625C10.4583 9.77075 10.5019 9.95264 10.5966 10.1079C10.6951 10.2632 10.8295 10.3977 11 10.5115C11.1705 10.6211 11.3674 10.7178 11.5909 10.801C11.6758 10.8313 11.763 10.8601 11.8523 10.887Z"/>
</g>

</svg>